<svg id="组_9" data-name="组 9" xmlns="http://www.w3.org/2000/svg" width="109.533" height="11.557" viewBox="0 0 109.533 11.557">
  <path id="_385491232" d="M2.632,3.393H2.448V3.013h.184c.177,0,.273.046.273.18s-.1.2-.273.2Zm.463-.2c0-.239-.189-.32-.44-.32h-.4v1.1h.192V3.532h.2l.276.446h.217l-.3-.468a.313.313,0,0,0,.255-.316h0Z" transform="translate(105.789 6.906)" fill="#fff" fill-rule="evenodd"/>
  <path id="_385491112" d="M3.348,4.751h0a.932.932,0,0,1-.973-.882.932.932,0,0,1,.973-.883.932.932,0,0,1,.973.883.932.932,0,0,1-.973.882Zm0-1.885a1.059,1.059,0,0,0-1.1,1,1.059,1.059,0,0,0,1.1,1,1.058,1.058,0,0,0,1.1-1,1.058,1.058,0,0,0-1.1-1Z" transform="translate(105.08 6.463)" fill="#fff" fill-rule="evenodd"/>
  <path id="_385491784" d="M4.738,3.289h0a.222.222,0,0,1,.232-.21H6.754a.222.222,0,0,1,.232.21v4.3a.222.222,0,0,1-.232.21H4.97a.222.222,0,0,1-.232-.21Zm-2.39-.21h.688a.222.222,0,0,1,.232.21v4.3a.222.222,0,0,1-.233.21H2.1l.245.37h.688a.222.222,0,0,1,.232.211v5.3l.878-.142a.651.651,0,0,0,.591-.623V8.378a.222.222,0,0,1,.232-.211H6.754a.222.222,0,0,1,.232.211v4.534a.651.651,0,0,0,.591.623l.879.142v-5.3a.222.222,0,0,1,.231-.211h.607V7.8H8.687a.222.222,0,0,1-.231-.21v-4.3a.222.222,0,0,1,.231-.21h.607v-.37H2.1l.245.37Z" transform="translate(97.227 -2.343)" fill="#fff" fill-rule="evenodd"/>
  <path id="_385491208" d="M5.993,8.172h0a4.274,4.274,0,0,1-.7,2.314,4.279,4.279,0,0,1-.7-2.314V5.412A.222.222,0,0,1,4.824,5.2h.937a.222.222,0,0,1,.232.211Zm.339,3.263A4.711,4.711,0,0,0,7.626,8.172V5.412A.222.222,0,0,1,7.857,5.2h.56v-.37h-.56a.222.222,0,0,1-.231-.211V2.716l-1.042.142a.653.653,0,0,0-.591.623v1.14a.222.222,0,0,1-.232.211H4.824a.222.222,0,0,1-.231-.211V3.481A.653.653,0,0,0,4,2.857L2.959,2.716V4.621a.222.222,0,0,1-.231.211H2l.245.37h.479a.222.222,0,0,1,.231.211V8.172a4.711,4.711,0,0,0,1.294,3.263.2.2,0,0,1-.016.284,7.936,7.936,0,0,1-2.242,1.417l.041.137a11.434,11.434,0,0,0,3.141-.955.255.255,0,0,1,.233,0,11.424,11.424,0,0,0,3.141.955l.041-.137a7.945,7.945,0,0,1-2.242-1.417.2.2,0,0,1-.016-.284h0Z" transform="translate(91.148 -1.939)" fill="#fff" fill-rule="evenodd"/>
  <path id="_385491856" d="M12.335,8.291,11.773,5.4A.218.218,0,0,1,12,5.15h2.33v-.37H12.294a.713.713,0,0,0,.124-.672.819.819,0,0,0-.321-.4,4.654,4.654,0,0,0-1.715-.461,3.307,3.307,0,0,1,.409,1.309.713.713,0,0,0,.117.226H9.451a.222.222,0,0,1-.232-.211v-1.1a.653.653,0,0,0-.591-.623L7.422,2.7V4.569a.222.222,0,0,1-.232.211H2.064l.245.37H4.8a.218.218,0,0,1,.228.247L4.469,8.291c-.665,3.418-2.075,4.728-2.756,5.176l.026.13c1.012-.245,3.6-1.237,4.339-5.049L6.7,5.324a.226.226,0,0,1,.228-.174h.258a.222.222,0,0,1,.232.21v8.9l1.205-.142a.653.653,0,0,0,.591-.623V5.36a.222.222,0,0,1,.232-.21h.422a.227.227,0,0,1,.228.174l.627,3.225c.74,3.812,3.327,4.8,4.339,5.049l.026-.13c-.682-.448-2.091-1.758-2.756-5.177h0Z" transform="translate(75.363 -2.702)" fill="#fff" fill-rule="evenodd"/>
  <path id="_385491520" d="M8.412,2.76,7.2,3.488a6.438,6.438,0,0,0-1.344-.527,6.663,6.663,0,0,0-1.733-.226,4.45,4.45,0,0,0-2.708.772A2.334,2.334,0,0,0,.362,5.461a2.065,2.065,0,0,0,.349,1.19,2.649,2.649,0,0,0,1.045.856,10.113,10.113,0,0,0,3.064.7c.241.024.428.045.557.063a5.991,5.991,0,0,1,2.043.506,1.019,1.019,0,0,1,.515.922,1.259,1.259,0,0,1-.714,1.117,3.822,3.822,0,0,1-1.943.419,5.135,5.135,0,0,1-2.735-.675A5.153,5.153,0,0,1,.631,8.426H.522v3.112h.22l1.2-.761a5.736,5.736,0,0,0,1.444.571,7.442,7.442,0,0,0,1.859.226,4.608,4.608,0,0,0,2.793-.753A2.422,2.422,0,0,0,9.056,8.77,2.2,2.2,0,0,0,8.267,7a4.574,4.574,0,0,0-2.326-.891c-.277-.039-.663-.093-1.163-.157Q1.646,5.549,1.645,4.507A1.167,1.167,0,0,1,2.3,3.452a3.8,3.8,0,0,1,1.859-.373,5,5,0,0,1,2.424.564A5.384,5.384,0,0,1,8.438,5.408h.111V2.735H8.438l-.026.024Zm14.575,8.494v.068H17.292v-.068c1.327-.845,1.5-.851,1.5-1.893V7.019H14.762V9.361c0,1.014.417,1.13,1.5,1.893v.068H10.569v-.068c.972-.618,1.934-.819,1.934-1.893V5.084c0-1.3-.761-1.318-1.934-2.065V2.952h5.694v.067c-1.224.862-1.5.622-1.5,2.042V6.585h4.031v-1.5c0-1.633.126-1.029-1.5-2.065V2.952h5.694v.067c-.987.7-1.935.931-1.935,2.065v4.3c0,.911,1.242,1.383,1.935,1.87h0Zm28.8-2.914h3.76L53.994,4.92H53.7ZM50.581,9.583l3.846-6.757h.907l3.2,6.971a4.018,4.018,0,0,0,1.327,1.423v.066h-4.9V11.22c1.34-1.016,1.472-.929.951-2.082l-.164-.365H51.575l-.2.345c-.325.564.465,1.32,1.2,2.1v.066H49.1V11.22a7.41,7.41,0,0,0,1.479-1.637Zm-1.61-6.666h.542v.048L48.1,3.883a1.964,1.964,0,0,0-.816.882L45.559,7.4V9.224c0,1.231.8,1.287,1.906,1.993v.069H41.357v-.069c1.14-.726,1.925-.765,1.925-2.03V7.957L42.151,5.93c-.775-1.391-.726-1.245-2.039-2.147l-1.168-.8V2.917H44.4v.059c-1.148.789-1.175.468-.532,1.626l1.423,2.562,1.659-2.5c.479-.723.5-.551-.2-1l-1.087-.7V2.917h3.3Zm23.761.059V2.917H68.166v.059c1.178.822,2.241,1.451,2.241,2.4V9.716l-5.535-6.8H60.213V2.98L61.845,4.1c.83.768.718.672.718,1.958V8.976c0,.862-1.055,1.51-2.026,2.25v.06h4.22v-.06c-.91-.768-1.851-1.38-1.851-2.259V3.919l5.184,6.329.85,1.037h1.793V5.366c0-1.033.886-1.531,2-2.391h0ZM24.539,2.952h5.476v.077c-1.213.772-1.934.752-1.934,2.1V8.715a2.368,2.368,0,0,0,.675,1.871,3.208,3.208,0,0,0,2.142.591,3.4,3.4,0,0,0,2.35-.645,3.016,3.016,0,0,0,.69-2.269V5.112c0-.964-1.449-1.507-2.314-2.1v-.06h4.9v.06c-.809.555-2.224,1.131-2.224,2.1V8.423a2.935,2.935,0,0,1-.871,2.419,4.776,4.776,0,0,1-2.943.7,9.808,9.808,0,0,1-2.386-.259,3.633,3.633,0,0,1-1.537-.738,1.981,1.981,0,0,1-.572-.856,5.757,5.757,0,0,1-.169-1.66V5.08c0-1.184-.895-1.355-1.934-2.068v-.06h.651Z" transform="translate(-0.362 -0.858)" fill="#fff" fill-rule="evenodd"/>
</svg>
