<svg id="组_12" data-name="组 12" xmlns="http://www.w3.org/2000/svg" width="118.198" height="105.161" viewBox="0 0 118.198 105.161">
  <path id="_385491184" d="M63,103.819,59.1,97.5l-3.9,6.323-.829,1.343-.77-1.379L.769,9.153,0,7.775H1.579l7.328,0-3.573-6.4L4.564,0H113.635l-.771,1.381-3.573,6.4,7.327,0H118.2l-.769,1.378L64.6,103.782l-.77,1.379Z" fill="#fefefe"/>
  <g id="组_11" data-name="组 11" transform="translate(1.579 0.93)">
    <path id="_385491352" d="M1.149,8.447l51.743,92.687,4.665-7.557,4.662,7.557L113.961,8.447l-8.906.006L109.4.676H5.715l4.342,7.777L1.149,8.447Zm61.1,93.976-4.69-7.6-4.692,7.6L.035,7.793,8.943,7.8,4.6.021h105.91L106.168,7.8l8.907-.006-52.828,94.63Z" transform="translate(-0.035 -0.021)" fill="#080808" fill-rule="evenodd"/>
    <path id="_385491160" d="M45.116,80.474.32.241H89.91l-.272.488L45.116,80.474ZM1.435.895,45.116,79.133,88.8.895H1.435Z" transform="translate(12.405 9.607)" fill="#080808" fill-rule="evenodd"/>
    <path id="_385490560" d="M7.8,1.085A18.692,18.692,0,0,1,1.088,3.017l-.033-.322A18.456,18.456,0,0,0,7.509.873q.145.109.293.212Z" transform="translate(44.54 37.201)" fill="#080808" fill-rule="evenodd"/>
    <path id="_385490944" d="M1.727.872A18.45,18.45,0,0,0,8.212,2.71l-.033.322A18.679,18.679,0,0,1,1.437,1.084q.148-.1.291-.212Z" transform="translate(61.208 37.186)" fill="#080808" fill-rule="evenodd"/>
    <path id="_385490608" d="M11.04.5q.465.038.916.12a.774.774,0,0,0,.079.368A8.865,8.865,0,0,0,10.868.838.76.76,0,0,0,11.04.5ZM9.725.838A8.8,8.8,0,0,0,8.558.992a.767.767,0,0,0,.08-.343V.624A9.1,9.1,0,0,1,9.554.5.763.763,0,0,0,9.725.838Zm-2.271.45a8.762,8.762,0,0,0-1.087.453.8.8,0,0,0,.015-.153.757.757,0,0,0-.033-.223A9.173,9.173,0,0,1,7.2,1.01a.77.77,0,0,0,.252.279ZM5.379,2.316a8.815,8.815,0,0,0-.935.722.782.782,0,0,0-.025-.154.764.764,0,0,0-.088-.205q.351-.3.732-.566a.766.766,0,0,0,.315.2ZM3.638,3.848a8.9,8.9,0,0,0-.718.939.8.8,0,0,0-.064-.141.77.77,0,0,0-.139-.176q.264-.382.563-.736a.764.764,0,0,0,.357.114ZM2.349,5.781A8.78,8.78,0,0,0,1.9,6.874a.766.766,0,0,0-.1-.119A.785.785,0,0,0,1.62,6.62a9.235,9.235,0,0,1,.354-.857.76.76,0,0,0,.375.018ZM1.6,7.983a9,9,0,0,0-.152,1.175.8.8,0,0,0-.126-.091.762.762,0,0,0-.208-.083q.037-.467.12-.92A.762.762,0,0,0,1.6,7.983ZM1.451,10.3A8.89,8.89,0,0,0,1.6,11.478a.806.806,0,0,0-.144-.055.762.762,0,0,0-.224-.026c-.055-.3-.094-.609-.119-.92A.764.764,0,0,0,1.451,10.3ZM1.9,12.588a8.86,8.86,0,0,0,.451,1.093.758.758,0,0,0-.376.018c-.131-.278-.25-.564-.354-.857a.766.766,0,0,0,.279-.253ZM2.92,14.674a8.9,8.9,0,0,0,.718.939.757.757,0,0,0-.358.114q-.3-.354-.563-.736a.769.769,0,0,0,.2-.317Zm1.524,1.75a8.832,8.832,0,0,0,11.706,0,.773.773,0,0,0,.113.359,9.175,9.175,0,0,1-11.932,0,.766.766,0,0,0,.113-.359Zm12.512-.81a8.858,8.858,0,0,0,.718-.94.809.809,0,0,0,.064.142.779.779,0,0,0,.138.176q-.263.382-.563.736a.758.758,0,0,0-.357-.114Zm1.289-1.932a8.882,8.882,0,0,0,.451-1.094.812.812,0,0,0,.1.12.789.789,0,0,0,.181.134,9.132,9.132,0,0,1-.354.858.768.768,0,0,0-.376-.018Zm.746-2.2a9,9,0,0,0,.152-1.176.776.776,0,0,0,.335.175q-.037.467-.12.921A.762.762,0,0,0,18.991,11.48Zm.153-2.32a9,9,0,0,0-.152-1.176.763.763,0,0,0,.367.081q.082.454.12.921A.759.759,0,0,0,19.144,9.16ZM18.7,6.876a8.921,8.921,0,0,0-.451-1.094.773.773,0,0,0,.375-.018,9.18,9.18,0,0,1,.354.857.763.763,0,0,0-.278.254ZM17.674,4.789a8.916,8.916,0,0,0-.718-.94.758.758,0,0,0,.358-.114q.3.354.563.736a.768.768,0,0,0-.2.318ZM16.15,3.038a8.949,8.949,0,0,0-.935-.722.769.769,0,0,0,.315-.2,9.157,9.157,0,0,1,.732.566.774.774,0,0,0-.113.359Zm-1.924-1.3a8.748,8.748,0,0,0-1.086-.453.752.752,0,0,0,.117-.1.769.769,0,0,0,.134-.182,9.171,9.171,0,0,1,.853.355A.776.776,0,0,0,14.227,1.741Z" transform="translate(47.185 21.083)" fill="#080808" fill-rule="evenodd"/>
    <path id="_385490344" d="M1.8.742,6.46,3.248a.759.759,0,0,0-.248.091.776.776,0,0,0-.132.1L1.644,1.053c.056-.1.106-.2.152-.31Zm5.5,2.952.017.01.156.084-.088.154-.021.036A.774.774,0,0,0,7.292,3.694Zm-.338.983-.02.034-.089.155-.151-.094L6.68,4.764a.754.754,0,0,0,.274-.086ZM5.875,4.261,1.386,1.456q.1-.139.192-.288l4.27,2.669a.771.771,0,0,0,.027.424Z" transform="translate(58.99 31.514)" fill="#080808" fill-rule="evenodd"/>
    <path id="_385491064" d="M1.608.722l5.15,1.207a.758.758,0,0,0-.216.152.767.767,0,0,0-.1.128l-4.9-1.148C1.568.951,1.591.837,1.608.722ZM7.677,2.145l.018,0,.173.041-.045.172L7.812,2.4a.757.757,0,0,0-.135-.258ZM7.6,3.181l-.01.039-.046.173-.171-.052-.015-.005A.745.745,0,0,0,7.6,3.181ZM6.454,3.06,1.4,1.518a3.412,3.412,0,0,0,.111-.327L6.319,2.658a.769.769,0,0,0,.135.4Z" transform="translate(59.437 30.625)" fill="#080808" fill-rule="evenodd"/>
    <path id="_385490656" d="M1.4.907,6.686.734a.767.767,0,0,0-.169.2.775.775,0,0,0-.066.15l-5.027.166C1.422,1.135,1.414,1.021,1.4.907ZM7.63.7h.018L7.827.7V.917A.771.771,0,0,0,7.63.7Zm.2,1.02v.22l-.179-.006H7.632a.769.769,0,0,0,.195-.214ZM6.684,1.9,1.4,1.731c.013-.114.021-.228.023-.345l5.027.166a.76.76,0,0,0,.234.353Z" transform="translate(59.659 29.495)" fill="#080808" fill-rule="evenodd"/>
    <path id="_385489600" d="M1.4,2.514,6.455.972a.762.762,0,0,0-.111.24.825.825,0,0,0-.025.162L1.507,2.841C1.475,2.729,1.438,2.62,1.4,2.514ZM7.359.7,7.376.69,7.547.638l.046.173L7.6.851A.756.756,0,0,0,7.359.7Zm.452.934.011.041.045.172-.173.041-.017,0a.759.759,0,0,0,.133-.257ZM6.755,2.1,1.607,3.31a3.426,3.426,0,0,0-.067-.34l4.9-1.148a.766.766,0,0,0,.318.281Z" transform="translate(59.438 26.972)" fill="#080808" fill-rule="evenodd"/>
    <path id="_385490104" d="M1.386,4,5.877,1.191a.761.761,0,0,0-.045.261.792.792,0,0,0,.017.164L1.578,4.285Q1.489,4.136,1.386,4ZM6.678.69,6.693.68,6.845.586l.089.155.021.035A.76.76,0,0,0,6.678.69Zm.678.785.021.036.088.154-.156.084-.016.009a.773.773,0,0,0,.063-.282Zm-.9.731L1.8,4.711c-.046-.106-.1-.21-.152-.31L6.079,2.018a.753.753,0,0,0,.379.189Z" transform="translate(58.99 24.662)" fill="#080808" fill-rule="evenodd"/>
    <path id="_385490272" d="M1.371,5.257,4.986,1.378a.764.764,0,0,0,.023.265.8.8,0,0,0,.059.154L1.631,5.485q-.124-.12-.259-.228ZM5.631.686,5.643.672,5.766.541l.127.127L5.921.7A.746.746,0,0,0,5.631.686Zm.858.582.029.03.125.126-.129.122L6.5,1.557A.761.761,0,0,0,6.488,1.268Zm-.679.94L1.951,5.84q-.108-.136-.227-.261l3.67-3.455a.762.762,0,0,0,.415.084Z" transform="translate(58.351 22.723)" fill="#080808" fill-rule="evenodd"/>
    <path id="_385489672" d="M1.353,6.206,3.845,1.519a.771.771,0,0,0,.188.384L1.663,6.359q-.151-.084-.31-.153ZM4.29.684,4.3.667,4.383.508,4.538.6l.036.02A.757.757,0,0,0,4.29.684Zm.979.338.036.021.153.089-.093.151-.01.016A.764.764,0,0,0,5.268,1.022ZM4.855,2.107,2.064,6.619c-.092-.069-.188-.133-.286-.193L4.433,2.134a.761.761,0,0,0,.423-.027Z" transform="translate(57.563 21.287)" fill="#080808" fill-rule="evenodd"/>
    <path id="_385490032" d="M1.577,3.116l.35-1.511a.772.772,0,0,0,.28.322L1.84,3.509A1.856,1.856,0,0,0,1.577,3.116ZM2.141.683l0-.019.04-.175.173.046L2.4.546a.759.759,0,0,0-.257.136ZM3.173.755l.04.011.172.046-.051.17L3.328,1A.767.767,0,0,0,3.173.755ZM3.054,1.91l-1.2,3.963c0-.051.007-.1.007-.157A1.7,1.7,0,0,0,1.8,5.242,1.853,1.853,0,0,0,2.023,4.13l.629-2.083a.753.753,0,0,0,.4-.137Zm-1.39,4.6-.145.481q-.086-.034-.173-.064a1.68,1.68,0,0,0,.318-.417Z" transform="translate(57.285 20.452)" fill="#080808" fill-rule="evenodd"/>
    <path id="_385490008" d="M1.381,2.749,1.345,1.633A.759.759,0,0,0,1.7,1.87l.026.808a1.828,1.828,0,0,0-.343.072ZM1.313.685V.663L1.307.485h.222a.768.768,0,0,0-.216.2Zm1.013-.2h.222L2.543.663V.685A.767.767,0,0,0,2.326.485Zm.185,1.148L2.474,2.749a1.789,1.789,0,0,0-.343-.072l.026-.808a.759.759,0,0,0,.353-.237Z" transform="translate(55.554 20.275)" fill="#080808" fill-rule="evenodd"/>
    <path id="_385490224" d="M3.116,6.994l-.145-.481a1.68,1.68,0,0,0,.318.417q-.087.03-.173.064ZM2.777,5.872l-1.2-3.964a.757.757,0,0,0,.4.137L2.612,4.13a1.853,1.853,0,0,0,.225,1.113,1.679,1.679,0,0,0-.067.473c0,.053,0,.106.007.157ZM1.307,1,1.3.982,1.25.812,1.422.766,1.461.755A.766.766,0,0,0,1.307,1ZM2.238.546l.038-.01L2.449.489l.04.175,0,.017A.767.767,0,0,0,2.238.546Zm.47,1.06.35,1.511a1.856,1.856,0,0,0-.263.393L2.428,1.926a.771.771,0,0,0,.28-.321Z" transform="translate(53.043 20.452)" fill="#080808" fill-rule="evenodd"/>
    <path id="_385265640" d="M4.592,6.619,1.8,2.106a.763.763,0,0,0,.423.028L4.878,6.426c-.1.06-.194.124-.286.193ZM1.3,1.3l-.011-.017L1.2,1.132l.154-.089.036-.021A.763.763,0,0,0,1.3,1.3Zm.78-.681L2.118.6l.155-.09.084.159.009.016A.762.762,0,0,0,2.082.619Zm.728.9L5.3,6.206q-.159.07-.31.153L2.622,1.9a.763.763,0,0,0,.188-.383Z" transform="translate(50.746 21.287)" fill="#080808" fill-rule="evenodd"/>
    <path id="_385201528" d="M5.845,5.839,1.987,2.208a.76.76,0,0,0,.261-.024.781.781,0,0,0,.153-.06l3.67,3.455Q5.953,5.7,5.845,5.839ZM1.3,1.558l-.014-.013-.13-.122L1.278,1.3l.03-.03a.761.761,0,0,0-.012.291ZM1.875.7,1.9.668,2.031.541l.123.131.012.013A.744.744,0,0,0,1.875.7Zm.936.681L6.425,5.257c-.09.072-.177.148-.259.228L2.728,1.8a.765.765,0,0,0,.083-.417Z" transform="translate(48.817 22.723)" fill="#080808" fill-rule="evenodd"/>
    <path id="_385265376" d="M6.789,4.711l-4.661-2.5a.772.772,0,0,0,.38-.188L6.941,4.4c-.056.1-.107.2-.152.31Zm-5.5-2.952-.017-.009-.156-.084.088-.154.021-.037a.774.774,0,0,0,.064.284ZM1.631.777,1.652.741,1.741.586,1.892.68l.015.01a.756.756,0,0,0-.277.087Zm1.079.414L7.2,4q-.1.139-.192.287L2.737,1.616a.761.761,0,0,0-.027-.425Z" transform="translate(47.389 24.661)" fill="#080808" fill-rule="evenodd"/>
    <path id="_385265136" d="M7.362,3.31,2.215,2.1a.748.748,0,0,0,.215-.151.76.76,0,0,0,.1-.129l4.9,1.148a3.424,3.424,0,0,0-.067.34ZM1.293,1.887l-.018,0L1.1,1.842l.046-.172.011-.042a.762.762,0,0,0,.135.259ZM1.365.852,1.377.812,1.423.638,1.594.69,1.61.7A.767.767,0,0,0,1.365.852Zm1.151.12L7.573,2.514c-.041.107-.079.216-.111.327L2.652,1.374a.766.766,0,0,0-.135-.4Z" transform="translate(46.557 26.972)" fill="#080808" fill-rule="evenodd"/>
    <path id="_385265208" d="M7.523,1.731,2.241,1.9a.771.771,0,0,0,.168-.2.779.779,0,0,0,.066-.151L7.5,1.386c0,.117.01.231.023.345Zm-6.229.2H1.276L1.1,1.942V1.72A.76.76,0,0,0,1.294,1.936ZM1.1.918V.7L1.276.7h.018a.769.769,0,0,0-.2.216ZM2.24.734,7.523.908c-.013.114-.021.228-.023.344L2.475,1.087A.761.761,0,0,0,2.24.734Z" transform="translate(46.38 29.495)" fill="#080808" fill-rule="evenodd"/>
    <path id="_385265544" d="M7.573,1.518,2.516,3.06a.772.772,0,0,0,.135-.4L7.463,1.191c.031.112.069.221.11.327ZM1.61,3.336l-.017.005-.171.052L1.377,3.22l-.011-.04a.763.763,0,0,0,.245.156ZM1.159,2.4l-.012-.042L1.1,2.189l.174-.041.018,0a.762.762,0,0,0-.134.259Zm1.056-.475L7.362.722a3.424,3.424,0,0,0,.067.34l-4.9,1.147a.762.762,0,0,0-.318-.281Z" transform="translate(46.557 30.625)" fill="#080808" fill-rule="evenodd"/>
    <path id="_385264512" d="M7.2,1.456,2.711,4.261A.777.777,0,0,0,2.756,4a.768.768,0,0,0-.018-.165L7.007,1.168c.06.1.124.2.192.288ZM1.907,4.763l-.016.01-.151.095-.089-.155-.021-.036a.746.746,0,0,0,.277.087Zm-.677-.784-.022-.037-.088-.154L1.276,3.7l.017-.009a.752.752,0,0,0-.063.284Zm.9-.732L6.789.742q.069.159.152.31L2.507,3.435a.756.756,0,0,0-.379-.188Z" transform="translate(47.389 31.514)" fill="#080808" fill-rule="evenodd"/>
    <path id="_385264296" d="M6.425,1.344,2.811,5.222a.771.771,0,0,0-.024-.263.759.759,0,0,0-.06-.154L6.166,1.115q.124.12.259.229ZM2.165,5.915l-.012.013-.123.131L1.9,5.932,1.875,5.9a.746.746,0,0,0,.29.012Zm-.856-.581L1.278,5.3l-.125-.126.129-.122L1.3,5.042A.772.772,0,0,0,1.309,5.334Zm.677-.941L5.845.761c.072.09.147.178.227.26L2.4,4.476a.759.759,0,0,0-.415-.083Z" transform="translate(48.817 32.305)" fill="#080808" fill-rule="evenodd"/>
    <path id="_385264584" d="M14.35,25.156a14.951,14.951,0,0,0,5.135-2.569,15.113,15.113,0,0,0,4.123-4.1A21.169,21.169,0,0,0,25.7,12.8a62.967,62.967,0,0,0,1.221-7.456q.123-1.1.223-2.189c.066-.715.13-1.463.19-2.234l.345.027q-.086,1.095-.192,2.238c-.07.752-.144,1.486-.223,2.2a63.128,63.128,0,0,1-1.228,7.5,21.492,21.492,0,0,1-2.128,5.78,15.463,15.463,0,0,1-4.221,4.2A15.17,15.17,0,0,1,14.378,25.5l-.028,0-.028,0a15.17,15.17,0,0,1-5.307-2.633,15.463,15.463,0,0,1-4.221-4.2,21.493,21.493,0,0,1-2.128-5.78,63.229,63.229,0,0,1-1.228-7.5c-.079-.71-.153-1.444-.223-2.2S1.082,1.682,1.024.953L1.369.926c.061.772.124,1.519.19,2.234s.141,1.456.224,2.189A62.871,62.871,0,0,0,3,12.8,21.168,21.168,0,0,0,5.093,18.49a15.113,15.113,0,0,0,4.123,4.1,14.951,14.951,0,0,0,5.135,2.569Z" transform="translate(43.171 39.522)" fill="#080808" fill-rule="evenodd"/>
    <path id="_385264656" d="M1.65.368A37.724,37.724,0,0,0,16.109,7.2l.109.021.046.1L21.428,18.5l.059.127-.092.106-10,11.394-.133-.5,9.72-11.074L15.918,7.6A38.374,38.374,0,0,1,1.385.707L1.65.368Z" transform="translate(58.944 15.137)" fill="#080808" fill-rule="evenodd"/>
    <path id="_385264776" d="M2.388.25H2.036a15.314,15.314,0,0,1,.233,2.666A15.268,15.268,0,0,1,2.112,5.1a15.246,15.246,0,0,1-.469,2.142l.331.1a15.59,15.59,0,0,0,.48-2.19,15.639,15.639,0,0,0,.162-2.236A15.727,15.727,0,0,0,2.388.25Z" transform="translate(70.204 9.988)" fill="#080808" fill-rule="evenodd"/>
    <path id="_385264344" d="M1.89.25h-.4a10.527,10.527,0,0,1,.939,1.9,11.229,11.229,0,0,1,.7,3.928,11.407,11.407,0,0,1-.117,1.632A11.172,11.172,0,0,1,2.661,9.3l.332.1a11.525,11.525,0,0,0,.36-1.638,11.692,11.692,0,0,0,.121-1.68,11.575,11.575,0,0,0-.727-4.048A10.921,10.921,0,0,0,1.89.25Z" transform="translate(63.329 9.988)" fill="#080808" fill-rule="evenodd"/>
    <path id="_385264320" d="M1.982.25h-.4q.092.149.183.3A25.031,25.031,0,0,1,5.07,11.963l.345-.017A25.382,25.382,0,0,0,2.058.375L1.982.25Z" transform="translate(67.364 9.988)" fill="#080808" fill-rule="evenodd"/>
    <path id="_385263480" d="M3.322.25H2.638A12.117,12.117,0,0,1,3.819,1.3,12.16,12.16,0,0,1,7.334,9.877a12.234,12.234,0,0,1-1.477,5.831,12.077,12.077,0,0,1-4.067,4.4l.233.364a12.509,12.509,0,0,0,4.213-4.553,12.663,12.663,0,0,0,1.53-6.038A12.592,12.592,0,0,0,4.125.993Q3.74.6,3.322.25Z" transform="translate(76.672 9.988)" fill="#080808" fill-rule="evenodd"/>
    <path id="_385264056" d="M16.534,21.683,17.866,19.3q-.363.414-.767.794a12.147,12.147,0,0,1-8.344,3.246,12.61,12.61,0,0,1-1.388-.076q-.5-.055-.984-.149c-.128-.025-.1.029-.229,0l-.344.762a13.4,13.4,0,0,0,2.945.329,13.1,13.1,0,0,0,7.778-2.519ZM20.1,15.3,21.384,13q.023-.354.023-.713a11.549,11.549,0,0,0-3.716-8.438A13.012,13.012,0,0,0,8.755.362a13.353,13.353,0,0,0-3.72.529A12.99,12.99,0,0,0,1.642,2.426l.466.727A12.128,12.128,0,0,1,5.275,1.719a12.5,12.5,0,0,1,3.48-.492A12.149,12.149,0,0,1,17.1,4.474a10.689,10.689,0,0,1,3.442,7.809A10.421,10.421,0,0,1,20.1,15.3Z" transform="translate(70.172 14.884)" fill="#080808" fill-rule="evenodd"/>
    <path id="_385263456" d="M1.676,16.6q.37.05.755.076c.247.017.5.025.759.025a10.972,10.972,0,0,0,7.534-2.932,9.662,9.662,0,0,0,3.11-7.057A8.676,8.676,0,0,0,11.9,1.153l.524-.38a9.325,9.325,0,0,1,2.054,5.943,10.3,10.3,0,0,1-3.316,7.529A11.617,11.617,0,0,1,3.19,17.354q-.394,0-.8-.027t-.8-.081l.086-.642Z" transform="translate(67.925 32.829)" fill="#080808" fill-rule="evenodd"/>
    <path id="_385263504" d="M12.721,19.8l.3-.544a11.842,11.842,0,0,1-5.635,1.4,12.115,12.115,0,0,1-2.9-.351A11.643,11.643,0,0,1,1.8,19.282l-.162.3a12,12,0,0,0,2.771,1.059,12.461,12.461,0,0,0,2.981.361,12.236,12.236,0,0,0,5.332-1.2Zm5.581-10,.281-.5a9.875,9.875,0,0,0-3.2-5.746A11.914,11.914,0,0,0,7.389.57q-.319,0-.654.018T6.084.639l.035.344c.211-.022.423-.039.634-.05s.418-.016.636-.016a11.57,11.57,0,0,1,7.761,2.9A9.475,9.475,0,0,1,18.3,9.806Z" transform="translate(69.95 23.992)" fill="#080808" fill-rule="evenodd"/>
    <path id="_385263576" d="M8.732,14.684a7.868,7.868,0,0,0,1.7-.515A8.166,8.166,0,0,0,12,13.279a7.824,7.824,0,0,0,3.092-4.636,6.262,6.262,0,0,0-.97-5.028L14.1,3.591h0A6.2,6.2,0,0,0,9.684,1.1,7.745,7.745,0,0,0,4.362,2.564l-.033.024h0A8.213,8.213,0,0,0,3.151,3.628,8,8,0,0,0,2.2,4.865l-.55-.343A8.7,8.7,0,0,1,2.676,3.187,8.892,8.892,0,0,1,3.948,2.064h0l.034-.024A8.4,8.4,0,0,1,9.752.459a6.839,6.839,0,0,1,4.874,2.751v0l.018.025a6.9,6.9,0,0,1,1.079,5.543A8.478,8.478,0,0,1,12.377,13.8a8.848,8.848,0,0,1-1.69.961,8.5,8.5,0,0,1-1.841.556l-.114-.637Z" transform="translate(70.592 17.198)" fill="#080808" fill-rule="evenodd"/>
    <path id="_385264104" d="M2.3,14.318l.293-.524c-.345-3.437-.521-6.681-.611-9.1l-.058-1.57L1.861,1.339l-.345.012.065,1.783L1.639,4.7C1.734,7.245,1.923,10.691,2.3,14.318Z" transform="translate(64.682 57.57)" fill="#080808" fill-rule="evenodd"/>
    <path id="_385267224" d="M2.316,14.536l.3-.53c-.215-2.255-.352-4.351-.44-6.094v0c-.042-.574-.085-1.449-.127-2.474C1.993,4.176,1.943,2.7,1.9,1.263l-.345.01C1.6,2.714,1.648,4.2,1.7,5.448c.042,1.04.085,1.92.127,2.485h0c.095,1.875.247,4.156.49,6.6Z" transform="translate(66.397 54.258)" fill="#080808" fill-rule="evenodd"/>
    <path id="_385267200" d="M2.27,17.148l.3-.537c-.088-1.023-.159-1.992-.216-2.887v0c-.15-1.689-.248-4.384-.311-6.88s-.093-4.81-.1-5.705l-.345,0c.01.9.039,3.208.1,5.711s.163,5.219.311,6.9h0c.066,1.043.151,2.187.26,3.4Z" transform="translate(68.115 48.652)" fill="#080808" fill-rule="evenodd"/>
    <path id="_385266744" d="M2.078,14.121l.3-.541C2.2,11.592,2.1,9.071,2.043,6.763c-.055-2.373-.061-4.518-.061-5.628H1.637c0,1.113.006,3.262.06,5.634s.159,4.978.354,7h0c.009.117.018.236.027.355Z" transform="translate(69.973 48.692)" fill="#080808" fill-rule="evenodd"/>
    <path id="_385267176" d="M1.9,11.4l.312-.559c-.081-1.433-.13-2.872-.157-4.208-.048-2.353-.031-4.387-.016-5.5l-.345,0c-.015,1.116-.032,3.154.016,5.511C1.742,8.149,1.8,9.788,1.9,11.4Z" transform="translate(71.809 48.443)" fill="#080808" fill-rule="evenodd"/>
    <path id="_385267104" d="M1.8,8.889l.325-.582C2.1,7.674,2.089,7.062,2.08,6.478c-.038-2.417.007-4.364.038-5.35l-.345-.011c-.031.988-.077,2.939-.038,5.366.012.76.032,1.567.064,2.406Z" transform="translate(73.626 47.882)" fill="#080808" fill-rule="evenodd"/>
    <path id="_385266888" d="M1.767,6.752l.341-.611c-.012-2.985.122-4.9.131-5.024l-.345-.025c-.009.128-.161,2.313-.127,5.659Z" transform="translate(75.436 46.835)" fill="#080808" fill-rule="evenodd"/>
    <path id="_385266672" d="M10.267,5.907A11.124,11.124,0,0,0,15.2,4.727,11.19,11.19,0,0,0,19.14,1.432l.276.207a11.529,11.529,0,0,1-4.06,3.4,11.464,11.464,0,0,1-5.036,1.218h-.1A11.463,11.463,0,0,1,5.178,5.036a11.529,11.529,0,0,1-4.06-3.4l.276-.207A11.19,11.19,0,0,0,5.332,4.727a11.124,11.124,0,0,0,4.935,1.18Z" transform="translate(47.254 61.667)" fill="#080808" fill-rule="evenodd"/>
    <path id="_385266984" d="M10.447,6.226a11.123,11.123,0,0,0,5.07-1.25A11.179,11.179,0,0,0,19.5,1.506l.282.2a11.539,11.539,0,0,1-4.105,3.579A11.471,11.471,0,0,1,10.5,6.572h-.1A11.471,11.471,0,0,1,5.219,5.284,11.539,11.539,0,0,1,1.113,1.7l.282-.2A11.179,11.179,0,0,0,5.377,4.976a11.123,11.123,0,0,0,5.07,1.25Z" transform="translate(47.073 64.864)" fill="#080808" fill-rule="evenodd"/>
    <path id="_385266192" d="M1.459,1.575,7.2,8.924l5.745-7.349.135.106.027.021.109.085L7.287,9.377H7.121L1.188,1.787l.136-.106Z" transform="translate(50.316 67.901)" fill="#080808" fill-rule="evenodd"/>
    <path id="_385265784" d="M1.383,1.54l9.156,11.713L19.695,1.54l.136.106.027.021.109.085L10.622,13.706h-.167L1.111,1.752l.136-.106Z" transform="translate(46.981 66.359)" fill="#080808" fill-rule="evenodd"/>
    <path id="_385266144" d="M1.378,1.6l9.367,11.983L20.112,1.6l.136.107.027.021.109.085L10.828,14.033h-.167L1.106,1.809,1.242,1.7Z" transform="translate(46.775 68.82)" fill="#080808" fill-rule="evenodd"/>
    <path id="_385265832" d="M14.328,3.682l1.095-1.96L8.284,10.855,1.163,1.746,2.258,3.706l5.943,7.6h.167Z" transform="translate(49.237 74.331)" fill="#080808" fill-rule="evenodd"/>
    <path id="_385266312" d="M6.811,1.818,4.119,5.262H3.952L1.26,1.818,1.4,1.712l.135-.106,2.5,3.2,2.5-3.2.136.106.027.021Z" transform="translate(53.485 69.228)" fill="#080808" fill-rule="evenodd"/>
    <path id="_385265712" d="M1.508,7.475,5.3,1.1l.3.176L1.8,7.651Z" transform="translate(64.336 47.318)" fill="#080808" fill-rule="evenodd"/>
    <path id="_385265928" d="M1.591,1.742a1.2,1.2,0,0,1,.215-.624A1.069,1.069,0,0,1,2.318.723a.87.87,0,0,1,.649.03.985.985,0,0,1,.378.3.84.84,0,0,1,.177.437.693.693,0,0,1-.151.5h0a.669.669,0,0,1-.178.159.6.6,0,0,1-.221.081.572.572,0,0,1-.489-.17.544.544,0,0,1-.129-.209.452.452,0,0,1-.009-.258.586.586,0,0,1,.366-.377l.128.3c-.113.049-.167.107-.182.162a.133.133,0,0,0,0,.077.213.213,0,0,0,.051.082h0a.244.244,0,0,0,.208.074.273.273,0,0,0,.1-.038.351.351,0,0,0,.092-.081h0a.376.376,0,0,0,.083-.27.519.519,0,0,0-.111-.267.657.657,0,0,0-.252-.2.553.553,0,0,0-.411-.02.747.747,0,0,0-.354.276.868.868,0,0,0-.156.456l-.324-.018Z" transform="translate(67.968 28.519)" fill="#080808" fill-rule="evenodd"/>
    <path id="_385201336" d="M8.394,1.508A1.977,1.977,0,0,1,7.6,3.454a2.012,2.012,0,0,1-.785.337,1.909,1.909,0,0,1-.853-.028A1.969,1.969,0,0,1,4.6,2.339,1.859,1.859,0,0,1,2.29,1.786a.69.69,0,0,1-.529-.174.578.578,0,0,1-.152-.24A.569.569,0,0,1,1.587,1.1.471.471,0,0,1,1.854.743a.445.445,0,0,1,.478.044.435.435,0,0,1,.114.134.411.411,0,0,1,.05.168.356.356,0,0,1-.19.347l-.159-.283a.043.043,0,0,0,.025-.041.08.08,0,0,0-.011-.035.116.116,0,0,0-.03-.035.134.134,0,0,0-.142-.005.154.154,0,0,0-.082.12.245.245,0,0,0,.01.115.261.261,0,0,0,.068.107.413.413,0,0,0,.36.078l.1-.016.057.086a1.618,1.618,0,0,0,2.13.443l.186-.1.048.206A1.709,1.709,0,0,0,6.046,3.45a1.574,1.574,0,0,0,.708.023,1.681,1.681,0,0,0,.659-.282,1.664,1.664,0,0,0,.66-1.64l.321-.043Z" transform="translate(67.466 29.377)" fill="#080808" fill-rule="evenodd"/>
    <path id="_385201288" d="M2.469,1.895a.577.577,0,0,1,.55.333h0a.422.422,0,0,1,.035.2.514.514,0,0,1-.087.254.528.528,0,0,1-.219.187.558.558,0,0,1-.262.047.828.828,0,0,1-.767-.663,1.377,1.377,0,0,1,.007-.717,1.206,1.206,0,0,1,.4-.624A1.3,1.3,0,0,1,3.6.895l-.146.289a1,1,0,0,0-1.126-.022.882.882,0,0,0-.286.458,1.049,1.049,0,0,0-.007.546A.521.521,0,0,0,2.5,2.59a.242.242,0,0,0,.112-.02A.2.2,0,0,0,2.7,2.5a.185.185,0,0,0,.032-.091.1.1,0,0,0-.008-.046h0a.248.248,0,0,0-.236-.143l-.018-.324Z" transform="translate(71.628 28.71)" fill="#080808" fill-rule="evenodd"/>
    <path id="_385201168" d="M3.715,3.212a.9.9,0,0,0,.248.1.8.8,0,0,0,.54-.068.985.985,0,0,0,.4-.38A.931.931,0,0,0,5.015,2.6a.986.986,0,0,0,.023-.264,1.372,1.372,0,0,0-.349-.814,1.58,1.58,0,0,0-.833-.507,1.458,1.458,0,0,0-.4-.036,1.744,1.744,0,0,0-.556.117A1.569,1.569,0,0,0,1.893,2.644a1.8,1.8,0,0,0,.126.576,2.638,2.638,0,0,0,.345.613,3.028,3.028,0,0,0,.514.536c.234.191.543.411.883.653,1.206.859,2.8,1.991,3.095,3.294l-.315.071c-.27-1.182-1.8-2.274-2.967-3.1-.343-.244-.655-.466-.9-.665a3.391,3.391,0,0,1-.57-.593,2.975,2.975,0,0,1-.387-.69,2.145,2.145,0,0,1-.147-.679A1.9,1.9,0,0,1,2.782.793a2.087,2.087,0,0,1,.66-.138A1.818,1.818,0,0,1,3.929.7a1.91,1.91,0,0,1,1.006.612,1.7,1.7,0,0,1,.427,1.012,1.3,1.3,0,0,1-.031.35,1.248,1.248,0,0,1-.143.357,1.309,1.309,0,0,1-.541.506,1.122,1.122,0,0,1-.756.093,1.193,1.193,0,0,1-.34-.137l.165-.279Z" transform="translate(66.895 27.598)" fill="#080808" fill-rule="evenodd"/>
    <path id="_385201600" d="M4.109,4.627a.886.886,0,0,1-.432.363,1.333,1.333,0,0,1-.609.1,1.371,1.371,0,0,1-1.026-.576,2.067,2.067,0,0,1-.375-1.035A2.674,2.674,0,0,1,1.836,2.27,2.843,2.843,0,0,1,3.5.643l.119.3A2.523,2.523,0,0,0,2.137,2.385a2.351,2.351,0,0,0-.149,1.062A1.747,1.747,0,0,0,2.3,4.32a1.057,1.057,0,0,0,.788.446,1.012,1.012,0,0,0,.461-.074.56.56,0,0,0,.276-.224l.283.159Z" transform="translate(70.742 27.155)" fill="#080808" fill-rule="evenodd"/>
    <path id="_385201696" d="M1.926,2.23c-.079.138-.078.239-.037.3a.167.167,0,0,0,.067.056.21.21,0,0,0,.1.02.189.189,0,0,0,.171-.129A2.9,2.9,0,0,1,3.562.907,2.494,2.494,0,0,1,5.524.781a2.7,2.7,0,0,1,.885.5,2.407,2.407,0,0,1,.612.766l-.29.143A2.081,2.081,0,0,0,6.2,1.524a2.385,2.385,0,0,0-.779-.435A2.175,2.175,0,0,0,3.711,1.2a2.575,2.575,0,0,0-1.187,1.4.5.5,0,0,1-.461.335.528.528,0,0,1-.245-.05.488.488,0,0,1-.2-.168.585.585,0,0,1,.026-.642l.28.161Z" transform="translate(65.599 26.998)" fill="#080808" fill-rule="evenodd"/>
    <path id="_385201552" d="M1.873.694a2.91,2.91,0,0,0,.614,1.565A5.916,5.916,0,0,0,4.105,3.707a9.209,9.209,0,0,1,2.471,2.1,2.393,2.393,0,0,1-.126,3.258L6.2,8.854A2.1,2.1,0,0,0,6.314,6,8.923,8.923,0,0,0,3.931,3.979,6.231,6.231,0,0,1,2.226,2.451,3.233,3.233,0,0,1,1.55.709Z" transform="translate(66.15 29.398)" fill="#080808" fill-rule="evenodd"/>
    <path id="_385200688" d="M1.717,2.351a1.086,1.086,0,0,1,.111-.906A1.4,1.4,0,0,1,2.31.965a1.38,1.38,0,0,1,.669-.2,1.3,1.3,0,0,1,.986.42,1.224,1.224,0,0,1,.164.212,1.21,1.21,0,0,1,.174.719,1.077,1.077,0,0,1-.328.7,1.242,1.242,0,0,1-.214.164.781.781,0,0,1-.891.032.762.762,0,0,1-.3-.453.638.638,0,0,1,.094-.523.711.711,0,0,1,.749-.222l-.057.32c-.23-.041-.367.007-.431.093a.318.318,0,0,0-.039.259.436.436,0,0,0,.171.259A.478.478,0,0,0,3.593,2.7a.877.877,0,0,0,.156-.12.759.759,0,0,0,.231-.49.886.886,0,0,0-.247-.679.986.986,0,0,0-.745-.323,1.058,1.058,0,0,0-.512.154,1.074,1.074,0,0,0-.37.367.769.769,0,0,0-.081.641l-.308.1Z" transform="translate(71.124 32.511)" fill="#080808" fill-rule="evenodd"/>
    <path id="_385200856" d="M2.519,1.722a.458.458,0,0,0,.41.113.249.249,0,0,0,.105-.071.267.267,0,0,0,.059-.118.391.391,0,0,0-.121-.354l0,0a.54.54,0,0,0-.407-.131.7.7,0,0,0-.453.181L2.1,1.343a.619.619,0,0,0-.178.444.723.723,0,0,0,.056.273.812.812,0,0,0,.173.258,1.463,1.463,0,0,0,1.077.359h.114l.039.108a2.31,2.31,0,0,0,.134.308,1.719,1.719,0,0,0,.161.252l-.255.2a2.014,2.014,0,0,1-.193-.3A2.587,2.587,0,0,1,3.117,3a1.715,1.715,0,0,1-1.195-.454,1.125,1.125,0,0,1-.241-.362,1.04,1.04,0,0,1-.079-.4.937.937,0,0,1,.275-.675h0l.006-.006h0A1.033,1.033,0,0,1,2.548.834a.859.859,0,0,1,.653.228h0l0,0h0a.708.708,0,0,1,.2.649.592.592,0,0,1-.131.26.565.565,0,0,1-.246.165.764.764,0,0,1-.707-.16l.193-.26Z" transform="translate(68.426 35.485)" fill="#080808" fill-rule="evenodd"/>
    <path id="_385200520" d="M2.9,1.591a.441.441,0,0,0-.077.439.312.312,0,0,0,.093.114.339.339,0,0,0,.14.061.405.405,0,0,0,.384-.159h0a.608.608,0,0,0,.1-.474.787.787,0,0,0-.251-.483h0A.651.651,0,0,0,2.95.94a.752.752,0,0,0-.371.049.868.868,0,0,0-.341.252,1.311,1.311,0,0,0-.276.692L1.64,1.893a1.638,1.638,0,0,1,.349-.861,1.194,1.194,0,0,1,.47-.344A1.072,1.072,0,0,1,2.99.618.982.982,0,0,1,3.5.837h0v0a1.113,1.113,0,0,1,.366.687.926.926,0,0,1-.174.727h0A.718.718,0,0,1,3,2.522a.66.66,0,0,1-.274-.12.635.635,0,0,1-.192-.233.749.749,0,0,1,.1-.761l.268.183Z" transform="translate(70.105 25.727)" fill="#080808" fill-rule="evenodd"/>
    <path id="_385200280" d="M2.47,1.522a.473.473,0,0,0,.431.085.249.249,0,0,0,.1-.081A.28.28,0,0,0,3.057,1.4a.405.405,0,0,0-.151-.356h0l0,0h0a.557.557,0,0,0-.429-.1.73.73,0,0,0-.451.219h0l-.006.006h0a.635.635,0,0,0-.151.469.737.737,0,0,0,.077.276.824.824,0,0,0,.2.251,1.5,1.5,0,0,0,1.128.288l.024.324A1.809,1.809,0,0,1,1.925,2.4a1.153,1.153,0,0,1-.271-.35,1.057,1.057,0,0,1-.111-.4.961.961,0,0,1,.23-.708h0L1.78.939h0A1.058,1.058,0,0,1,2.437.614.878.878,0,0,1,3.117.8v0l0,0h0a.722.722,0,0,1,.254.645.605.605,0,0,1-.114.273.573.573,0,0,1-.237.186A.779.779,0,0,1,2.3,1.8l.174-.274Z" transform="translate(65.759 25.586)" fill="#080808" fill-rule="evenodd"/>
    <path id="_385200256" d="M3.391,4.614a1.443,1.443,0,0,0,.067-.169,3.044,3.044,0,0,0,0-1.723A2.666,2.666,0,0,0,2,1.03a3.557,3.557,0,0,0-.42-.168l.1-.308a3.91,3.91,0,0,1,.458.185A2.98,2.98,0,0,1,3.763,2.63a3.388,3.388,0,0,1,0,1.916,1.752,1.752,0,0,1-.083.207l-.292-.139Z" transform="translate(67.56 23.258)" fill="#080808" fill-rule="evenodd"/>
    <path id="_385200808" d="M14.28.25h-.355a21.821,21.821,0,0,1,.417,2.232,59.439,59.439,0,0,0-6.4,3.774,59.559,59.559,0,0,0-6.4-3.775A21.813,21.813,0,0,1,1.961.25H1.606a22.113,22.113,0,0,0-.42,2.308l-.015.121.109.055A59.505,59.505,0,0,1,7.841,6.609l.1.074.1-.074a59.375,59.375,0,0,1,6.562-3.874l.109-.056L14.7,2.558A22.113,22.113,0,0,0,14.28.25Z" transform="translate(49.577 9.988)" fill="#080808" fill-rule="evenodd"/>
    <path id="_385204168" d="M10.411.25h-.352q.056.292.1.592A38.5,38.5,0,0,0,5.878,3.348,38.456,38.456,0,0,0,1.6.842q.045-.3.1-.592H1.346q-.062.328-.111.665l-.017.123.112.056A38.46,38.46,0,0,1,5.777,3.7l.1.074.1-.074a38.461,38.461,0,0,1,4.447-2.606l.112-.056L10.521.915Q10.473.578,10.41.25Z" transform="translate(51.642 9.988)" fill="#080808" fill-rule="evenodd"/>
    <path id="_385204240" d="M9.324.25H8.886l0,.018A30.817,30.817,0,0,0,5.3,2.342,30.859,30.859,0,0,0,1.712.268l0-.018H1.276l-.018.1L1.231.513l.146.071a30.588,30.588,0,0,1,3.8,2.2l.128.094.128-.094a30.589,30.589,0,0,1,3.8-2.2L9.369.513,9.342.354,9.324.25Z" transform="translate(52.22 9.988)" fill="#080808" fill-rule="evenodd"/>
    <path id="_385203544" d="M15.645.25H15.2a23.854,23.854,0,0,1,.514,2.792,68.246,68.246,0,0,0-7.048,4.18,68.244,68.244,0,0,0-7.048-4.18A23.853,23.853,0,0,1,2.132.25H1.688a24.2,24.2,0,0,0-.517,2.891l-.017.149.134.068a71.765,71.765,0,0,1,6.8,3.982,1.7,1.7,0,0,1,1.139.018,71.4,71.4,0,0,1,6.823-4l.134-.069-.017-.149A24.1,24.1,0,0,0,15.645.25Z" transform="translate(48.854 9.988)" fill="#080808" fill-rule="evenodd"/>
    <path id="_385203760" d="M1.894.6c-.024.084-.042.164-.057.241a1.353,1.353,0,0,0,.154,1.05,1.424,1.424,0,0,0,.821.519c.075.021.153.038.232.054a3.067,3.067,0,0,0,1.381-.108,3.184,3.184,0,0,1,1.853-.034l-.091.31A2.916,2.916,0,0,0,4.5,2.67a3.321,3.321,0,0,1-1.515.111c-.09-.017-.177-.036-.26-.06a1.737,1.737,0,0,1-1-.648A1.659,1.659,0,0,1,1.519.782C1.536.695,1.557.6,1.582.513L1.894.6Z" transform="translate(62.959 21.489)" fill="#080808" fill-rule="evenodd"/>
    <path id="_385203856" d="M2.22,1.161a.278.278,0,0,0,.243.073A.121.121,0,0,0,2.516,1.2h0a.144.144,0,0,0,.031-.061.228.228,0,0,0-.072-.2l0,0A.334.334,0,0,0,2.224.852a.446.446,0,0,0-.286.112l0,0a.385.385,0,0,0-.112.275.469.469,0,0,0,.035.174.523.523,0,0,0,.11.166.978.978,0,0,0,.718.24v.324a1.292,1.292,0,0,1-.951-.338.848.848,0,0,1-.178-.27.776.776,0,0,1-.058-.3A.707.707,0,0,1,1.709.735h0l0,0h0a.773.773,0,0,1,.5-.2.65.65,0,0,1,.493.176l0,0v0a.543.543,0,0,1,.153.5.467.467,0,0,1-.1.2h0a.446.446,0,0,1-.194.129.584.584,0,0,1-.539-.121l.194-.259Z" transform="translate(63.968 22.161)" fill="#080808" fill-rule="evenodd"/>
    <path id="_385203736" d="M1.922.6a1.235,1.235,0,0,0,.453.555,1.225,1.225,0,0,0,.683.208c.035,0,.07,0,.1,0s.07-.007.1-.013l.053.32q-.067.011-.129.017c-.044,0-.087.006-.13.006A1.547,1.547,0,0,1,2.2,1.419a1.558,1.558,0,0,1-.572-.7L1.922.6Z" transform="translate(69.331 25.073)" fill="#080808" fill-rule="evenodd"/>
    <path id="_385203328" d="M2.011.7a.574.574,0,0,0-.034.11h0a.542.542,0,0,0-.011.114.567.567,0,0,0,.165.4.561.561,0,0,0,.4.166.559.559,0,0,0,.426-.2l.246.21a.891.891,0,0,1-.3.228.882.882,0,0,1-1-.181.891.891,0,0,1-.26-.63A.909.909,0,0,1,1.66.747h0A.866.866,0,0,1,1.713.576l.3.126Z" transform="translate(70.16 24.258)" fill="#080808" fill-rule="evenodd"/>
    <path id="_385203784" d="M1.62.61a.476.476,0,0,0,.559.147A.472.472,0,0,0,2.345.64a.477.477,0,0,0,.1-.176l.308.1A.805.805,0,0,1,2.583.86a.809.809,0,0,1-.281.2.8.8,0,0,1-.51.035A.8.8,0,0,1,1.365.809L1.62.61Z" transform="translate(58.066 19.337)" fill="#080808" fill-rule="evenodd"/>
    <path id="_385203016" d="M2.68,1.825a.59.59,0,0,0,.445.321.329.329,0,0,0,.167-.039h0a.359.359,0,0,0,.13-.12A.509.509,0,0,0,3.438,1.5h0l0,0h0a.692.692,0,0,0-.428-.344.887.887,0,0,0-.616.01h0l-.008,0h0a.778.778,0,0,0-.407.441.907.907,0,0,0-.057.347,1.011,1.011,0,0,0,.088.382,1.813,1.813,0,0,0,1.087.892l-.114.3A2.121,2.121,0,0,1,1.711,2.465a1.338,1.338,0,0,1-.115-.5,1.238,1.238,0,0,1,.078-.47A1.1,1.1,0,0,1,2.256.868h0l.008,0h0A1.215,1.215,0,0,1,3.11.845a1.014,1.014,0,0,1,.623.522h0l0,.006h0a.826.826,0,0,1-.044.791.68.68,0,0,1-.246.227h0a.645.645,0,0,1-.332.077A.9.9,0,0,1,2.407,2l.273-.175Z" transform="translate(68.16 33.114)" fill="#080808" fill-rule="evenodd"/>
    <path id="_385203280" d="M20.911.707A38.375,38.375,0,0,1,6.378,7.6L1.319,18.557l9.72,11.074-.047.6L.9,18.736.81,18.63.868,18.5,6.032,7.324l.046-.1L6.187,7.2A37.724,37.724,0,0,0,20.646.368l.266.34Z" transform="translate(33.801 15.137)" fill="#080808" fill-rule="evenodd"/>
    <path id="_385202776" d="M9.244,13.407A15.075,15.075,0,0,1,13.044,22L18.869,15.2,15.077,7.2A42.062,42.062,0,0,1,1.417.876,1.721,1.721,0,0,0,1.358.435,41.506,41.506,0,0,0,15.226,6.9l.077.018.034.071,3.87,8.172.045.095-.068.08L13.036,22.5l-.266.309-.032-.4A14.75,14.75,0,0,0,9.01,13.631l.234-.224Z" transform="translate(57.761 18.062)" fill="#080808" fill-rule="evenodd"/>
    <path id="_385202680" d="M11.128,13.565A14.746,14.746,0,0,0,7.4,22.341l-.031.407L7.1,22.439.954,15.268l-.068-.08.045-.095L4.8,6.921l.034-.071.077-.018A41.512,41.512,0,0,0,18.687.436a1.738,1.738,0,0,0-.042.379c0,.016,0,.033,0,.049A42.074,42.074,0,0,1,5.06,7.13L1.269,15.137l5.825,6.795a15.075,15.075,0,0,1,3.8-8.591l.234.224Z" transform="translate(37.142 18.128)" fill="#080808" fill-rule="evenodd"/>
    <path id="_385202992" d="M1.561.25H1.21a15.632,15.632,0,0,0,.412,7.1l.331-.1A15.317,15.317,0,0,1,1.561.25Z" transform="translate(41.242 9.988)" fill="#080808" fill-rule="evenodd"/>
    <path id="_385203064" d="M3.1.25H2.7a10.839,10.839,0,0,0-.833,1.718,11.562,11.562,0,0,0-.751,4.113,11.692,11.692,0,0,0,.121,1.68A11.526,11.526,0,0,0,1.6,9.4l.332-.1a11.172,11.172,0,0,1-.35-1.588,11.406,11.406,0,0,1-.117-1.632,11.218,11.218,0,0,1,.728-3.99A10.518,10.518,0,0,1,3.1.25Z" transform="translate(47.123 9.988)" fill="#080808" fill-rule="evenodd"/>
    <path id="_385202608" d="M4.818.25h-.4l-.061.1A25.37,25.37,0,0,0,.981,11.946l.345.017A25.017,25.017,0,0,1,4.649.529Q4.732.388,4.818.25Z" transform="translate(41.281 9.988)" fill="#080808" fill-rule="evenodd"/>
    <path id="_385202248" d="M5.849.25H5.165q-.417.354-.8.744A12.666,12.666,0,0,0,2.249,15.915a12.509,12.509,0,0,0,4.213,4.553L6.7,20.1a12.071,12.071,0,0,1-4.066-4.4A12.188,12.188,0,0,1,5.849.25Z" transform="translate(29.882 9.988)" fill="#080808" fill-rule="evenodd"/>
    <path id="_385201816" d="M.582,12.985l1.283,2.3a10.423,10.423,0,0,1-.439-3A10.689,10.689,0,0,1,4.868,4.474a12.149,12.149,0,0,1,8.344-3.246,12.5,12.5,0,0,1,3.48.492,12.128,12.128,0,0,1,3.167,1.434l.466-.727A12.99,12.99,0,0,0,16.931.891a13.353,13.353,0,0,0-3.72-.529A13.012,13.012,0,0,0,4.276,3.845,11.549,11.549,0,0,0,.56,12.282q0,.354.022.7Zm3.533,6.329L5.442,21.69A13.1,13.1,0,0,0,13.211,24.2a13.4,13.4,0,0,0,2.945-.329l-.189-.842a12.461,12.461,0,0,1-2.756.3,12.147,12.147,0,0,1-8.344-3.246q-.4-.371-.752-.777Z" transform="translate(22.902 14.884)" fill="#080808" fill-rule="evenodd"/>
    <path id="_385202320" d="M13.659,17.246q-.4.055-.8.081t-.8.027a11.617,11.617,0,0,1-7.978-3.109A10.3,10.3,0,0,1,.765,6.715,9.329,9.329,0,0,1,2.819.772l.525.38a8.676,8.676,0,0,0-1.93,5.563,9.662,9.662,0,0,0,3.11,7.057A10.972,10.972,0,0,0,12.059,16.7c.258,0,.512-.008.759-.025s.508-.042.755-.076l.086.642Z" transform="translate(31.867 32.829)" fill="#080808" fill-rule="evenodd"/>
    <path id="_385201792" d="M.628,9.3l.281.5A9.474,9.474,0,0,1,4.06,3.814a11.57,11.57,0,0,1,7.761-2.9q.327,0,.636.016t.634.05l.035-.344Q12.8.6,12.475.588T11.821.57A11.914,11.914,0,0,0,3.829,3.557,9.872,9.872,0,0,0,.628,9.3Zm5.565,9.967.3.543a12.239,12.239,0,0,0,5.324,1.2,12.461,12.461,0,0,0,2.981-.361,12,12,0,0,0,2.771-1.059l-.162-.3a11.644,11.644,0,0,1-2.692,1.027,12.115,12.115,0,0,1-2.9.351,11.847,11.847,0,0,1-5.628-1.4Z" transform="translate(25.881 23.991)" fill="#080808" fill-rule="evenodd"/>
    <path id="_385202104" d="M7.723,15.321a8.5,8.5,0,0,1-1.841-.556,8.848,8.848,0,0,1-1.69-.961A8.478,8.478,0,0,1,.847,8.779,6.9,6.9,0,0,1,1.925,3.237l.018-.025v0A6.839,6.839,0,0,1,6.817.459a8.4,8.4,0,0,1,5.769,1.58l.034.024h0a8.893,8.893,0,0,1,1.272,1.123,8.664,8.664,0,0,1,1.025,1.336l-.55.343a8,8,0,0,0-.949-1.237A8.212,8.212,0,0,0,12.24,2.589h0l-.033-.024A7.745,7.745,0,0,0,6.885,1.1,6.2,6.2,0,0,0,2.468,3.591h0l-.017.024a6.262,6.262,0,0,0-.97,5.028,7.824,7.824,0,0,0,3.092,4.636,8.166,8.166,0,0,0,1.565.89,7.868,7.868,0,0,0,1.7.515l-.114.637Z" transform="translate(27.88 17.198)" fill="#080808" fill-rule="evenodd"/>
    <path id="_385202488" d="M1.1,13.785l.293.524c.379-3.623.568-7.067.662-9.606l.058-1.57.065-1.783-.345-.012L1.772,3.122l-.058,1.57C1.624,7.11,1.449,10.352,1.1,13.785Z" transform="translate(46.66 57.571)" fill="#080808" fill-rule="evenodd"/>
    <path id="_385202008" d="M1.065,14l.3.53c.242-2.445.394-4.722.489-6.6h0c.041-.565.084-1.445.127-2.485.051-1.249.1-2.733.143-4.175l-.345-.01C1.732,2.7,1.683,4.176,1.632,5.434c-.042,1.025-.085,1.9-.127,2.474v0c-.088,1.742-.226,3.834-.44,6.086Z" transform="translate(44.968 54.258)" fill="#080808" fill-rule="evenodd"/>
    <path id="_384386744" d="M1.028,16.6l.3.537c.109-1.208.193-2.35.259-3.39h0c.149-1.682.247-4.39.311-6.9s.092-4.812.1-5.711l-.345,0c-.01.9-.039,3.2-.1,5.705s-.162,5.191-.311,6.88v0c-.057.892-.127,1.859-.215,2.879Z" transform="translate(43.33 48.652)" fill="#080808" fill-rule="evenodd"/>
    <path id="_385199304" d="M.99,13.572l.3.541q.014-.174.027-.346h0c.2-2.018.3-4.62.354-7s.06-4.522.06-5.634H1.388c0,1.11-.006,3.255-.061,5.628-.053,2.3-.152,4.822-.337,6.809Z" transform="translate(41.697 48.692)" fill="#080808" fill-rule="evenodd"/>
    <path id="_385199256" d="M.953,10.833l.312.559c.1-1.61.158-3.246.189-4.752.048-2.357.031-4.394.016-5.511l-.345,0c.015,1.114.032,3.147-.016,5.5-.027,1.333-.075,2.769-.156,4.2Z" transform="translate(40.066 48.443)" fill="#080808" fill-rule="evenodd"/>
    <path id="_385198440" d="M.914,8.3l.325.582c.032-.835.051-1.639.064-2.4.038-2.427-.007-4.378-.038-5.366l-.345.011C.951,2.114,1,4.06.958,6.478.949,7.059.934,7.669.914,8.3Z" transform="translate(38.377 47.882)" fill="#080808" fill-rule="evenodd"/>
    <path id="_385198656" d="M1,6.132l.341.611c.034-3.341-.118-5.521-.127-5.65l-.345.025c.009.12.142,2.034.131,5.014Z" transform="translate(36.495 46.835)" fill="#080808" fill-rule="evenodd"/>
    <path id="_385198680" d="M.794,2.82l.473.848a4.59,4.59,0,0,1-.133-1.028,3.513,3.513,0,0,1,.3-1.486L1.12,1.012a3.859,3.859,0,0,0-.331,1.63c0,.059,0,.118.006.178Zm1.93,3.457.548.981A15.421,15.421,0,0,0,4.73,8.325l.19-.289A12.557,12.557,0,0,1,2.788,6.343l-.063-.066Z" transform="translate(32.887 43.314)" fill="#080808" fill-rule="evenodd"/>
    <path id="_385198896" d="M4.838,7.651,1.044,1.28l.3-.176L5.134,7.475Z" transform="translate(44.062 47.318)" fill="#080808" fill-rule="evenodd"/>
    <path id="_385198824" d="M7.268,3.556A3.525,3.525,0,0,0,6.833,2.9a4.474,4.474,0,0,0-2.4-1.427,3.87,3.87,0,0,0-2.616.234,2.683,2.683,0,0,0-.5.328L1.1,1.774a3.016,3.016,0,0,1,.561-.37A4.214,4.214,0,0,1,4.515,1.14,4.822,4.822,0,0,1,7.1,2.682a3.9,3.9,0,0,1,.477.717l-.307.157Z" transform="translate(46.591 43.194)" fill="#080808" fill-rule="evenodd"/>
    <path id="_385198800" d="M6.481,3.171A3.42,3.42,0,0,0,6.089,2.6a2.926,2.926,0,0,0-1.85-1.025,3.477,3.477,0,0,0-2.132.416,4.037,4.037,0,0,0-.67.46l-.335-.4a4.539,4.539,0,0,1,.757-.519A3.991,3.991,0,0,1,4.31,1.059a3.437,3.437,0,0,1,2.175,1.2,3.934,3.934,0,0,1,.45.662l-.454.247Z" transform="translate(46.603 43.829)" fill="#080808" fill-rule="evenodd"/>
    <path id="_385197888" d="M1.558,1.908a2.594,2.594,0,0,1-.256-.35h0a2.494,2.494,0,0,1-.19-.384l.322-.126a2.142,2.142,0,0,0,.163.331h0a2.206,2.206,0,0,0,.222.3Z" transform="translate(47.023 44.847)" fill="#080808" fill-rule="evenodd"/>
    <path id="_385197720" d="M1.506,1.635c-.061-.026-.124-.056-.188-.088h0c-.058-.029-.118-.063-.181-.1l.177-.3c.049.029.1.059.161.088h0c.052.027.108.052.167.078a2.656,2.656,0,0,0,1.311.206,1.858,1.858,0,0,0,1.06-.452l.233.255a2.2,2.2,0,0,1-1.256.54,3,3,0,0,1-1.483-.232Z" transform="translate(48.117 45.867)" fill="#080808" fill-rule="evenodd"/>
    <path id="_385197696" d="M2.237,1.376a.745.745,0,0,0-.53.22.759.759,0,0,0,0,1.067.748.748,0,0,0,1.059,0,.759.759,0,0,0,0-1.067A.744.744,0,0,0,2.237,1.376Zm-.774-.024a1.1,1.1,0,1,1-.321.777A1.091,1.091,0,0,1,1.462,1.352Z" transform="translate(48.325 44.051)" fill="#080808" fill-rule="evenodd"/>
    <path id="_385198248" d="M1.751,1.386a.284.284,0,0,0-.169.082.294.294,0,0,0,0,.412.288.288,0,0,0,.407,0,.292.292,0,0,0,.065-.1.494.494,0,0,1-.163-.111.506.506,0,0,1-.14-.284Zm-.414-.162a.631.631,0,0,1,.449-.187.639.639,0,0,1,.1.008.622.622,0,0,1,.095.023.172.172,0,0,1,.117.195.174.174,0,0,0,.04.165.188.188,0,0,0,.123.049.173.173,0,0,1,.157.171.593.593,0,0,1-.183.476.634.634,0,0,1-1.083-.449.638.638,0,0,1,.186-.45Z" transform="translate(48.725 44.432)" fill="#080808" fill-rule="evenodd"/>
    <path id="_385197600" d="M10.176,2.1V3.558H10A1.728,1.728,0,0,1,9.75,3.49C8.8,3.2,4.763,1.977,3.479,2.05A2.733,2.733,0,0,0,1.363,3.14L1.048,3c0-.011,1.335-3.767,9.013-1.056l.116.041V2.1ZM9.83,3.153V2.227c-3.914-1.36-6.066-1-7.218-.371A3.47,3.47,0,0,1,3.46,1.7C4.795,1.63,8.833,2.851,9.83,3.153Z" transform="translate(44.2 40.9)" fill="#080808" fill-rule="evenodd"/>
    <path id="_385198176" d="M1.4,3.4a3.878,3.878,0,0,1,.477-.717A4.82,4.82,0,0,1,4.461,1.14,4.214,4.214,0,0,1,7.312,1.4a3,3,0,0,1,.561.37l-.222.265a2.683,2.683,0,0,0-.5-.328,3.872,3.872,0,0,0-2.616-.234A4.476,4.476,0,0,0,2.142,2.9a3.524,3.524,0,0,0-.435.653L1.4,3.4Z" transform="translate(59.621 43.194)" fill="#080808" fill-rule="evenodd"/>
    <path id="_385197624" d="M1.414,2.924a3.934,3.934,0,0,1,.45-.662,3.437,3.437,0,0,1,2.175-1.2,3.991,3.991,0,0,1,2.451.475,4.54,4.54,0,0,1,.757.519l-.335.4a4,4,0,0,0-.669-.46A3.478,3.478,0,0,0,4.11,1.572,2.927,2.927,0,0,0,2.26,2.6a3.448,3.448,0,0,0-.391.574Z" transform="translate(60.236 43.829)" fill="#080808" fill-rule="evenodd"/>
    <path id="_385153832" d="M1.52,1.68a2.249,2.249,0,0,0,.222-.3h0A2.142,2.142,0,0,0,1.9,1.047l.322.126a2.45,2.45,0,0,1-.19.384h0a2.549,2.549,0,0,1-.255.35Z" transform="translate(64.827 44.847)" fill="#080808" fill-rule="evenodd"/>
    <path id="_385153784" d="M4.044,1.317c.054-.023.11-.049.167-.079s.112-.059.16-.088l.177.3c-.063.037-.123.071-.18.1s-.122.06-.189.088A2.993,2.993,0,0,1,2.7,1.866a2.2,2.2,0,0,1-1.256-.54l.233-.255a1.858,1.858,0,0,0,1.06.452,2.653,2.653,0,0,0,1.31-.206Z" transform="translate(61.385 45.867)" fill="#080808" fill-rule="evenodd"/>
    <path id="_385154216" d="M2.551,1.029a1.1,1.1,0,1,1-.774.323A1.092,1.092,0,0,1,2.551,1.029Zm.53.566a.753.753,0,1,0,0,1.067.759.759,0,0,0,0-1.067Z" transform="translate(62.075 44.051)" fill="#080808" fill-rule="evenodd"/>
    <path id="_385153352" d="M2.1,1.038a.631.631,0,0,1,.449.187.636.636,0,0,1,0,.9.63.63,0,0,1-.9,0,.594.594,0,0,1-.184-.475.173.173,0,0,1,.157-.172.188.188,0,0,0,.123-.049.175.175,0,0,0,.039-.165A.172.172,0,0,1,1.9,1.069a.648.648,0,0,1,.2-.031Zm.2.431a.286.286,0,0,0-.169-.082.5.5,0,0,1-.141.284.5.5,0,0,1-.162.111.292.292,0,0,0,.065.1.288.288,0,0,0,.407,0,.294.294,0,0,0,0-.412Z" transform="translate(62.577 44.432)" fill="#080808" fill-rule="evenodd"/>
    <path id="_385153688" d="M1.742,2.227v.927c1-.3,5.035-1.523,6.369-1.449a3.474,3.474,0,0,1,.849.151c-1.152-.626-3.3-.99-7.218.371ZM1.4,3.385v-1.4l.116-.041C9.189-.771,10.52,2.985,10.524,3l-.315.144A2.734,2.734,0,0,0,8.093,2.05C6.808,1.977,2.772,3.2,1.822,3.49a1.746,1.746,0,0,1-.253.069H1.4Z" transform="translate(59.416 40.9)" fill="#080808" fill-rule="evenodd"/>
    <path id="_385153664" d="M2.619,1.76A.868.868,0,0,0,2.463,1.3a.747.747,0,0,0-.354-.276.553.553,0,0,0-.411.02.657.657,0,0,0-.252.2.519.519,0,0,0-.111.267.376.376,0,0,0,.083.27h0a.35.35,0,0,0,.092.081.273.273,0,0,0,.1.038.244.244,0,0,0,.208-.074h0a.213.213,0,0,0,.051-.082.133.133,0,0,0,0-.077c-.015-.055-.069-.113-.182-.162l.128-.3a.586.586,0,0,1,.366.377.452.452,0,0,1-.009.258.549.549,0,0,1-.128.209.573.573,0,0,1-.489.17.6.6,0,0,1-.221-.081.669.669,0,0,1-.178-.159h0a.693.693,0,0,1-.151-.5.84.84,0,0,1,.177-.437.985.985,0,0,1,.378-.3.87.87,0,0,1,.649-.03,1.069,1.069,0,0,1,.512.395,1.2,1.2,0,0,1,.215.624l-.324.018Z" transform="translate(42.538 28.52)" fill="#080808" fill-rule="evenodd"/>
    <path id="_385153448" d="M1.255,1.551a1.663,1.663,0,0,0,.66,1.64,1.676,1.676,0,0,0,.659.282,1.574,1.574,0,0,0,.708-.023A1.709,1.709,0,0,0,4.46,2.075l.048-.206.186.1a1.618,1.618,0,0,0,2.13-.443l.057-.086.1.016a.413.413,0,0,0,.36-.078.261.261,0,0,0,.068-.107.245.245,0,0,0,.01-.115.154.154,0,0,0-.082-.12.134.134,0,0,0-.142.005.116.116,0,0,0-.03.035.08.08,0,0,0-.011.035.042.042,0,0,0,.025.041l-.159.283a.356.356,0,0,1-.19-.347.419.419,0,0,1,.05-.168A.442.442,0,0,1,7.475.743a.471.471,0,0,1,.267.362.569.569,0,0,1-.022.268.578.578,0,0,1-.152.24.689.689,0,0,1-.529.174,1.858,1.858,0,0,1-2.313.552A1.968,1.968,0,0,1,3.366,3.763a1.909,1.909,0,0,1-.853.028,2.012,2.012,0,0,1-.785-.337A1.977,1.977,0,0,1,.934,1.508l.321.043Z" transform="translate(38.246 29.377)" fill="#080808" fill-rule="evenodd"/>
    <path id="_385153376" d="M2.035,2.218a.248.248,0,0,0-.236.143h0a.1.1,0,0,0-.008.046.185.185,0,0,0,.032.091.2.2,0,0,0,.084.071.242.242,0,0,0,.112.02.521.521,0,0,0,.471-.425,1.049,1.049,0,0,0-.007-.546A.885.885,0,0,0,2.2,1.161a1.006,1.006,0,0,0-1.126.022L.926.895A1.3,1.3,0,0,1,2.4.909a1.206,1.206,0,0,1,.4.624A1.377,1.377,0,0,1,2.8,2.25a.828.828,0,0,1-.767.663.553.553,0,0,1-.262-.047.528.528,0,0,1-.219-.187.514.514,0,0,1-.087-.254.422.422,0,0,1,.035-.2h0a.577.577,0,0,1,.55-.333l-.018.324Z" transform="translate(38.89 28.71)" fill="#080808" fill-rule="evenodd"/>
    <path id="_385153760" d="M4.264,3.491a1.192,1.192,0,0,1-.34.137,1.122,1.122,0,0,1-.756-.093,1.308,1.308,0,0,1-.541-.506,1.248,1.248,0,0,1-.143-.357,1.3,1.3,0,0,1-.031-.35A1.7,1.7,0,0,1,2.88,1.31,1.91,1.91,0,0,1,3.886.7,1.818,1.818,0,0,1,4.372.655a2.087,2.087,0,0,1,.66.138A1.9,1.9,0,0,1,6.246,2.658a2.145,2.145,0,0,1-.147.679,2.975,2.975,0,0,1-.387.69,3.391,3.391,0,0,1-.57.593c-.244.2-.556.421-.9.665-1.165.829-2.7,1.921-2.968,3.1L.959,8.319c.3-1.3,1.888-2.438,3.1-3.3.34-.242.649-.461.883-.653a3.028,3.028,0,0,0,.514-.536A2.638,2.638,0,0,0,5.8,3.22a1.8,1.8,0,0,0,.126-.576A1.569,1.569,0,0,0,4.915,1.095,1.744,1.744,0,0,0,4.359.978a1.458,1.458,0,0,0-.4.036,1.58,1.58,0,0,0-.833.507,1.372,1.372,0,0,0-.349.814A.986.986,0,0,0,2.8,2.6a.931.931,0,0,0,.107.265.985.985,0,0,0,.4.38.8.8,0,0,0,.54.068.88.88,0,0,0,.248-.1l.165.279Z" transform="translate(40.331 27.598)" fill="#080808" fill-rule="evenodd"/>
    <path id="_385153040" d="M1.218,4.468a.56.56,0,0,0,.276.224,1.012,1.012,0,0,0,.461.074,1.057,1.057,0,0,0,.788-.446,1.747,1.747,0,0,0,.313-.873,2.351,2.351,0,0,0-.149-1.062A2.523,2.523,0,0,0,1.428.945l.119-.3A2.843,2.843,0,0,1,3.208,2.27a2.674,2.674,0,0,1,.169,1.208A2.067,2.067,0,0,1,3,4.513a1.371,1.371,0,0,1-1.026.576,1.333,1.333,0,0,1-.609-.1.886.886,0,0,1-.432-.363Z" transform="translate(39.255 27.155)" fill="#080808" fill-rule="evenodd"/>
    <path id="_385152272" d="M6.359,2.069a.585.585,0,0,1,.026.642.491.491,0,0,1-.2.168.531.531,0,0,1-.245.05.5.5,0,0,1-.461-.335A2.575,2.575,0,0,0,4.295,1.2a2.175,2.175,0,0,0-1.712-.107,2.378,2.378,0,0,0-.779.435,2.076,2.076,0,0,0-.53.662l-.29-.143A2.407,2.407,0,0,1,1.6,1.276a2.7,2.7,0,0,1,.885-.5A2.494,2.494,0,0,1,4.443.907a2.9,2.9,0,0,1,1.34,1.569.19.19,0,0,0,.171.129.21.21,0,0,0,.1-.02.167.167,0,0,0,.067-.056c.041-.061.042-.162-.037-.3l.28-.161Z" transform="translate(41.437 26.998)" fill="#080808" fill-rule="evenodd"/>
    <path id="_385152896" d="M6.575.709A3.233,3.233,0,0,1,5.9,2.451,6.231,6.231,0,0,1,4.194,3.979,8.923,8.923,0,0,0,1.811,6,2.1,2.1,0,0,0,1.92,8.854l-.246.21a2.394,2.394,0,0,1-.126-3.258,9.208,9.208,0,0,1,2.471-2.1A5.916,5.916,0,0,0,5.638,2.259,2.91,2.91,0,0,0,6.252.694l.323.015Z" transform="translate(40.766 29.398)" fill="#080808" fill-rule="evenodd"/>
    <path id="_385152656" d="M3.2,2.251a.769.769,0,0,0-.081-.641,1.074,1.074,0,0,0-.37-.367,1.058,1.058,0,0,0-.512-.154.986.986,0,0,0-.745.323.886.886,0,0,0-.247.679.759.759,0,0,0,.231.49.877.877,0,0,0,.156.12.478.478,0,0,0,.538.041.436.436,0,0,0,.171-.259A.318.318,0,0,0,2.3,2.224c-.064-.086-.2-.135-.431-.093l-.057-.32a.711.711,0,0,1,.749.222.64.64,0,0,1,.094.523.767.767,0,0,1-.3.453.782.782,0,0,1-.892-.032,1.242,1.242,0,0,1-.214-.164,1.08,1.08,0,0,1-.328-.7,1.214,1.214,0,0,1,.338-.93,1.3,1.3,0,0,1,.986-.42,1.38,1.38,0,0,1,.669.2,1.4,1.4,0,0,1,.483.48,1.084,1.084,0,0,1,.111.906l-.308-.1Z" transform="translate(38.688 32.511)" fill="#080808" fill-rule="evenodd"/>
    <path id="_385152392" d="M2.348,1.982a.764.764,0,0,1-.707.16A.565.565,0,0,1,1.4,1.977a.592.592,0,0,1-.131-.26.708.708,0,0,1,.2-.649h0l0,0h0A.859.859,0,0,1,2.127.834,1.033,1.033,0,0,1,2.79,1.1h0l.006.006h0a.937.937,0,0,1,.275.675,1.033,1.033,0,0,1-.079.4,1.125,1.125,0,0,1-.241.362A1.715,1.715,0,0,1,1.557,3a2.586,2.586,0,0,1-.114.246,2.015,2.015,0,0,1-.193.3L1,3.345a1.719,1.719,0,0,0,.161-.252,2.31,2.31,0,0,0,.134-.308l.039-.108h.114a1.463,1.463,0,0,0,1.077-.359.812.812,0,0,0,.173-.258.723.723,0,0,0,.056-.273.619.619,0,0,0-.178-.444l-.006-.005a.7.7,0,0,0-.453-.181.541.541,0,0,0-.407.131l0,0a.391.391,0,0,0-.121.354.267.267,0,0,0,.059.118.249.249,0,0,0,.105.071.458.458,0,0,0,.41-.113l.193.26Z" transform="translate(41.941 35.485)" fill="#080808" fill-rule="evenodd"/>
    <path id="_385152368" d="M2.2,1.408a.749.749,0,0,1,.1.761.635.635,0,0,1-.192.233.661.661,0,0,1-.274.12.718.718,0,0,1-.691-.269h0a.926.926,0,0,1-.174-.727A1.113,1.113,0,0,1,1.332.839l0,0h0A.982.982,0,0,1,1.842.618a1.072,1.072,0,0,1,.531.071,1.194,1.194,0,0,1,.47.344,1.638,1.638,0,0,1,.349.861l-.322.039a1.311,1.311,0,0,0-.276-.692A.868.868,0,0,0,2.252.989.752.752,0,0,0,1.881.94a.651.651,0,0,0-.34.146h0a.79.79,0,0,0-.251.483.608.608,0,0,0,.1.474h0a.4.4,0,0,0,.384.159.34.34,0,0,0,.139-.061A.312.312,0,0,0,2,2.03a.441.441,0,0,0-.077-.439L2.2,1.408Z" transform="translate(40.104 25.727)" fill="#080808" fill-rule="evenodd"/>
    <path id="_385152512" d="M2.15,1.8a.779.779,0,0,1-.73.11.573.573,0,0,1-.237-.186.605.605,0,0,1-.114-.273A.722.722,0,0,1,1.324.8h0l0,0v0A.878.878,0,0,1,2.01.614a1.058,1.058,0,0,1,.656.325h0l.006.007h0a.961.961,0,0,1,.23.708,1.057,1.057,0,0,1-.111.4,1.153,1.153,0,0,1-.271.35,1.809,1.809,0,0,1-1.367.368l.024-.324a1.5,1.5,0,0,0,1.128-.288.834.834,0,0,0,.2-.251A.746.746,0,0,0,2.58,1.63a.635.635,0,0,0-.151-.469h0l-.006-.006h0A.732.732,0,0,0,1.973.936a.558.558,0,0,0-.43.1h0l0,0h0A.405.405,0,0,0,1.39,1.4a.286.286,0,0,0,.052.127.249.249,0,0,0,.1.081.473.473,0,0,0,.431-.085L2.15,1.8Z" transform="translate(44.835 25.586)" fill="#080808" fill-rule="evenodd"/>
    <path id="_385152488" d="M1.23,4.753a3.1,3.1,0,0,1-.171-1.735,3.086,3.086,0,0,1,.722-1.544A3,3,0,0,1,2.423.93,3.6,3.6,0,0,1,3.229.553l.1.308A3.277,3.277,0,0,0,2.6,1.2a2.681,2.681,0,0,0-.573.485,2.768,2.768,0,0,0-.645,1.383,2.768,2.768,0,0,0,.143,1.543l-.292.139Z" transform="translate(42.568 23.258)" fill="#080808" fill-rule="evenodd"/>
    <path id="_384454920" d="M1.345,8.779V4.537A3.96,3.96,0,0,1,1.994,2.3,3.129,3.129,0,0,1,3.748,1.008l.089.334A2.778,2.778,0,0,0,2.281,2.49a3.614,3.614,0,0,0-.59,2.047V8.779H1.345Z" transform="translate(57.193 43.11)" fill="#080808" fill-rule="evenodd"/>
    <path id="_384386576" d="M9.111,2.823A10.253,10.253,0,0,1,7.5,1.909c-.8-.583-1.092-.165-1.664.214-.56-.4-.882-.779-1.652-.214a10.342,10.342,0,0,1-1.651.934,28.39,28.39,0,0,1,3.405-.224,24.693,24.693,0,0,1,3.17.2Zm.766.456A3.8,3.8,0,0,1,7.025,4.694l-.65.01-.575,0-.575,0-.649-.01A3.8,3.8,0,0,1,1.738,3.3l-.432.063L1.22,3.027a14.019,14.019,0,0,0,2.762-1.4,1.37,1.37,0,0,1,1.863.044A1.37,1.37,0,0,1,7.708,1.63a14.019,14.019,0,0,0,2.762,1.4l-.089.332c-.17-.028-.338-.056-.5-.081ZM2.146,3.241A3.418,3.418,0,0,0,4.581,4.349l.647.01.573,0,.572,0,.647-.01a3.42,3.42,0,0,0,2.455-1.13,24.869,24.869,0,0,0-3.533-.256A28.914,28.914,0,0,0,2.146,3.241Z" transform="translate(51.749 55.36)" fill="#080808" fill-rule="evenodd"/>
    <path id="_384386960" d="M2.119,1.471a1.31,1.31,0,0,0-.517,1c.018.288.318.487.6.611a.228.228,0,0,1,.01-.16.257.257,0,0,1,.276-.137,1.2,1.2,0,0,1,.271.054h0A3.52,3.52,0,0,1,4,3.531l-.242.246a3.121,3.121,0,0,0-1.1-.612h0l-.037-.011a.389.389,0,0,0,.106.1l-.118.322s-1.3-.285-1.349-1.089A1.673,1.673,0,0,1,1.91,1.2l.209.275Z" transform="translate(53.259 51.354)" fill="#080808" fill-rule="evenodd"/>
    <path id="_384386000" d="M1.535,1.21a2.863,2.863,0,0,0,1.513.877A2.863,2.863,0,0,0,4.561,1.21l.25.238a3.2,3.2,0,0,1-1.76.984,2.989,2.989,0,0,1-1.768-.984l.25-.238Z" transform="translate(54.546 51.946)" fill="#080808" fill-rule="evenodd"/>
    <path id="_384386360" d="M3.42,1.2a1.673,1.673,0,0,1,.653,1.292c-.051.8-1.345,1.088-1.349,1.089L2.6,3.256a.386.386,0,0,0,.107-.1l-.037.011h0a3.116,3.116,0,0,0-1.1.612l-.242-.246a3.522,3.522,0,0,1,1.243-.7h0a1.189,1.189,0,0,1,.27-.054.258.258,0,0,1,.277.137.228.228,0,0,1,.009.16c.279-.124.578-.323.6-.611a1.312,1.312,0,0,0-.518-1L3.42,1.2Z" transform="translate(56.599 51.354)" fill="#080808" fill-rule="evenodd"/>
    <path id="_384386216" d="M2.465,1.828c-.058.034-.078.071-.073.1a.157.157,0,0,0,.042.08.245.245,0,0,0,.1.067.152.152,0,0,0,.177-.044c.008-.009.015-.018.022-.028a.4.4,0,0,0,.055-.319A.584.584,0,0,0,2.6,1.374c-.012-.01-.025-.02-.039-.03a.644.644,0,0,0-.412-.114.617.617,0,0,0-.382.166.638.638,0,0,0-.174.36.745.745,0,0,0,.045.409.7.7,0,0,0,.31.341,1.569,1.569,0,0,0,.888.146L3,2.641l.006.168s.017.664,1.131.689l-.006.323c-1.055-.023-1.341-.56-1.419-.838a1.777,1.777,0,0,1-.926-.195,1.023,1.023,0,0,1-.45-.5A1.075,1.075,0,0,1,1.272,1.7a.962.962,0,0,1,.273-.544A.937.937,0,0,1,2.127.907a.977.977,0,0,1,.62.172c.021.015.042.032.063.049a.913.913,0,0,1,.292.487A.716.716,0,0,1,3,2.19c-.013.017-.026.035-.041.052a.462.462,0,0,1-.534.138.577.577,0,0,1-.228-.155.484.484,0,0,1-.122-.251A.412.412,0,0,1,2.3,1.547l.163.28Z" transform="translate(53.372 38.629)" fill="#080808" fill-rule="evenodd"/>
    <path id="_384386240" d="M3.158,1.547a.412.412,0,0,1,.232.427.484.484,0,0,1-.122.251.574.574,0,0,1-.228.155.462.462,0,0,1-.534-.138c-.015-.018-.029-.035-.041-.052a.714.714,0,0,1-.106-.575.913.913,0,0,1,.292-.487c.021-.018.042-.034.063-.049a.975.975,0,0,1,.62-.172.937.937,0,0,1,.581.254.962.962,0,0,1,.273.544,1.075,1.075,0,0,1-.066.587,1.023,1.023,0,0,1-.45.5,1.776,1.776,0,0,1-.926.195c-.078.278-.364.815-1.419.838L1.322,3.5c1.114-.025,1.131-.688,1.131-.689l.006-.168.167.012a1.569,1.569,0,0,0,.888-.146.7.7,0,0,0,.31-.341.749.749,0,0,0,.045-.409.638.638,0,0,0-.174-.36.616.616,0,0,0-.382-.166.645.645,0,0,0-.412.114l-.039.03a.58.58,0,0,0-.187.311A.4.4,0,0,0,2.73,2a.32.32,0,0,0,.022.028.152.152,0,0,0,.177.044.251.251,0,0,0,.1-.067.161.161,0,0,0,.042-.08c0-.031-.016-.068-.073-.1l.162-.28Z" transform="translate(56.183 38.629)" fill="#080808" fill-rule="evenodd"/>
    <path id="_384385808" d="M5.756.513C5.782.6,5.8.695,5.82.782a1.659,1.659,0,0,1-.206,1.292,1.737,1.737,0,0,1-1,.648c-.083.023-.171.043-.26.06A3.321,3.321,0,0,1,2.837,2.67a2.916,2.916,0,0,0-1.685-.038l-.091-.31a3.184,3.184,0,0,1,1.853.034,3.067,3.067,0,0,0,1.381.108c.08-.015.157-.033.232-.054a1.424,1.424,0,0,0,.821-.519A1.353,1.353,0,0,0,5.5.84C5.487.763,5.468.683,5.445.6L5.756.513Z" transform="translate(44.742 21.489)" fill="#080808" fill-rule="evenodd"/>
    <path id="_384386120" d="M1.82,4.384a1.621,1.621,0,0,1-.3-.261A1.9,1.9,0,0,1,1.04,2.988,2.016,2.016,0,0,1,1.368,1.72a2.1,2.1,0,0,1,.337-.392A2.291,2.291,0,0,1,3.917.866,5.991,5.991,0,0,0,4.894.96a4.663,4.663,0,0,0,.87-.081A1.475,1.475,0,0,0,6.475.563L6.7.8a1.778,1.778,0,0,1-.869.4,4.991,4.991,0,0,1-.932.087,6.157,6.157,0,0,1-1.028-.1,2.036,2.036,0,0,0-1.945.382,1.769,1.769,0,0,0-.285.331,1.691,1.691,0,0,0-.275,1.065,1.575,1.575,0,0,0,.392.941A1.318,1.318,0,0,0,2,4.114l-.179.27Z" transform="translate(43.607 23.686)" fill="#080808" fill-rule="evenodd"/>
    <path id="_384385712" d="M1.962,1.42a.584.584,0,0,1-.539.121.446.446,0,0,1-.194-.129h0a.467.467,0,0,1-.1-.2.543.543,0,0,1,.153-.5v0l0,0A.651.651,0,0,1,1.776.529a.775.775,0,0,1,.5.2h0l0,0h0a.707.707,0,0,1,.209.507.767.767,0,0,1-.058.3.848.848,0,0,1-.178.27,1.292,1.292,0,0,1-.951.338V1.822a.978.978,0,0,0,.718-.24.523.523,0,0,0,.11-.166.459.459,0,0,0,.035-.174A.385.385,0,0,0,2.054.968l0,0A.446.446,0,0,0,1.765.852a.334.334,0,0,0-.249.079l0,0a.226.226,0,0,0-.072.2.138.138,0,0,0,.031.061h0a.121.121,0,0,0,.053.035.278.278,0,0,0,.243-.073l.194.259Z" transform="translate(47.084 22.161)" fill="#080808" fill-rule="evenodd"/>
    <path id="_384385616" d="M2.679.718a1.558,1.558,0,0,1-.572.7,1.547,1.547,0,0,1-.864.264c-.043,0-.086,0-.13-.006s-.084-.009-.129-.017l.053-.32c.032.006.067.01.1.013s.068,0,.1,0a1.223,1.223,0,0,0,.683-.208A1.232,1.232,0,0,0,2.379.6Z" transform="translate(41.408 25.073)" fill="#080808" fill-rule="evenodd"/>
    <path id="_384385328" d="M2.456.576a.866.866,0,0,1,.053.171h0a.872.872,0,0,1,.019.178.891.891,0,0,1-.888.892.882.882,0,0,1-.369-.081.891.891,0,0,1-.3-.228l.246-.21A.563.563,0,0,0,2.2.925.579.579,0,0,0,2.192.812h0A.574.574,0,0,0,2.158.7l.3-.126Z" transform="translate(40.712 24.258)" fill="#080808" fill-rule="evenodd"/>
    <path id="_384385256" d="M1.892.625a1.167,1.167,0,0,0-.2.349A1.732,1.732,0,0,0,1.7.762,1.717,1.717,0,0,0,1.67.437l.222.188Zm-.273.662a1.172,1.172,0,0,0,.1.582h0l0,0a1.158,1.158,0,0,0,1.533.572l0,0h0a1.16,1.16,0,0,0,.531-.495l.284.156a1.495,1.495,0,0,1-.679.633h0l0,0a1.482,1.482,0,0,1-1.962-.73l0,0h0a1.467,1.467,0,0,1-.076-.2,1.706,1.706,0,0,0,.268-.512Z" transform="translate(57.476 18.181)" fill="#080808" fill-rule="evenodd"/>
    <path id="_384385424" d="M3.935,1.793a1.378,1.378,0,0,1-.055.137h0l0,0a1.483,1.483,0,0,1-1.962.73l0,0h0a1.494,1.494,0,0,1-.679-.633l.284-.156a1.16,1.16,0,0,0,.531.495h0l0,0A1.158,1.158,0,0,0,3.584,1.8l0,0h0a1.178,1.178,0,0,0,.1-.388,1.722,1.722,0,0,0,.247.386Zm-.4-1.08A1.2,1.2,0,0,0,3.415.552L3.548.439A1.692,1.692,0,0,0,3.53.688Z" transform="translate(52.257 18.255)" fill="#080808" fill-rule="evenodd"/>
    <path id="_384385352" d="M2.407,2a.9.9,0,0,1-.706.469.646.646,0,0,1-.332-.077h0a.68.68,0,0,1-.246-.227.826.826,0,0,1-.044-.791h0l0-.006h0A1.014,1.014,0,0,1,1.7.845a1.215,1.215,0,0,1,.845.019h0l.008,0h0a1.1,1.1,0,0,1,.582.624,1.238,1.238,0,0,1,.078.47,1.347,1.347,0,0,1-.115.5A2.123,2.123,0,0,1,1.833,3.53l-.114-.3a1.813,1.813,0,0,0,1.087-.892,1.011,1.011,0,0,0,.088-.382.907.907,0,0,0-.057-.347.778.778,0,0,0-.407-.441h0l-.008,0h0a.887.887,0,0,0-.616-.01.692.692,0,0,0-.428.344h0l0,0h0a.509.509,0,0,0,.017.487.359.359,0,0,0,.13.12h0a.329.329,0,0,0,.167.039.591.591,0,0,0,.445-.321L2.407,2Z" transform="translate(42.067 33.114)" fill="#080808" fill-rule="evenodd"/>
    <path id="_384385400" d="M3.138.4A1.868,1.868,0,0,1,4.451,3.589,1.858,1.858,0,0,1,1.28,2.27,1.863,1.863,0,0,1,3.138.4Zm1.084.776a1.528,1.528,0,0,0-2.168,0,1.549,1.549,0,0,0,0,2.182,1.529,1.529,0,0,0,2.168,0,1.549,1.549,0,0,0,0-2.182Z" transform="translate(54.345 16.674)" fill="#080808" fill-rule="evenodd"/>
    <path id="_384377888" d="M2.513.417A1.224,1.224,0,0,1,3.732,1.642,1.218,1.218,0,1,1,2.513.417ZM3.146,1A.892.892,0,0,0,1.881,1a.9.9,0,0,0,0,1.274.892.892,0,0,0,1.265,0A.9.9,0,0,0,3.146,1Z" transform="translate(54.969 17.302)" fill="#080808" fill-rule="evenodd"/>
    <path id="_384454992" d="M6.291.63a3.8,3.8,0,0,1,1.39,6.251,3.761,3.761,0,0,1-5.339,0A3.8,3.8,0,0,1,3.732.63,1.656,1.656,0,0,0,4.017.9a3.456,3.456,0,0,0-1.43,5.738,3.417,3.417,0,0,0,4.849,0A3.452,3.452,0,0,0,6.006.9,1.656,1.656,0,0,0,6.291.63Z" transform="translate(52.47 26.614)" fill="#080808" fill-rule="evenodd"/>
    <path id="_384377816" d="M1.416.7H3.95V1.708h-2.7V.7Zm2.209.325H1.578v.359H3.625Z" transform="translate(53.184 29.611)" fill="#080808" fill-rule="evenodd"/>
    <path id="_384378056" d="M1.491.7H4.026V1.708h-2.7V.7Zm2.21.325H1.654v.359H3.7Z" transform="translate(56.502 29.611)" fill="#080808" fill-rule="evenodd"/>
    <path id="_384377792" d="M1.416.66H3.95V1.669h-2.7V.66ZM3.625.984H1.578v.36H3.625Z" transform="translate(53.184 27.899)" fill="#080808" fill-rule="evenodd"/>
    <path id="_384377696" d="M1.491.66H4.026V1.669h-2.7V.66ZM3.7.984H1.654v.36H3.7Z" transform="translate(56.502 27.899)" fill="#080808" fill-rule="evenodd"/>
    <path id="_384379400" d="M1.416.738H3.95V1.747h-2.7V.738Zm2.209.325H1.578v.359H3.625Z" transform="translate(53.184 31.323)" fill="#080808" fill-rule="evenodd"/>
    <path id="_384379184" d="M1.491.738H4.026V1.747h-2.7V.738Zm2.21.325H1.654v.359H3.7Z" transform="translate(56.502 31.323)" fill="#080808" fill-rule="evenodd"/>
    <path id="_384379448" d="M2.236.479a.94.94,0,0,1,.662,1.6A.937.937,0,0,1,1.574.754.932.932,0,0,1,2.236.479ZM2.653,1a.589.589,0,0,0-.834,0,.6.6,0,0,0,0,.84.589.589,0,0,0,.834,0,.6.6,0,0,0,0-.84Z" transform="translate(55.246 19.996)" fill="#080808" fill-rule="evenodd"/>
    <path id="_384379136" d="M2.182.486a.94.94,0,0,1,.662,1.6A.937.937,0,0,1,1.521.762.93.93,0,0,1,2.182.486Zm.417.519a.588.588,0,0,0-.833,0,.6.6,0,0,0,0,.84.588.588,0,0,0,.833,0,.6.6,0,0,0,0-.84Z" transform="translate(52.879 20.306)" fill="#080808" fill-rule="evenodd"/>
    <path id="_384378776" d="M2.132.507a.94.94,0,0,1,.661,1.6.936.936,0,0,1-1.6-.664A.939.939,0,0,1,2.132.507Zm.416.519a.588.588,0,0,0-.833,0,.6.6,0,0,0,0,.84.588.588,0,0,0,.833,0,.6.6,0,0,0,0-.84Z" transform="translate(50.673 21.225)" fill="#080808" fill-rule="evenodd"/>
    <path id="_384378632" d="M1.846.573h0a.927.927,0,0,1,.708.094.938.938,0,0,1,.435.568h0v0a.941.941,0,0,1-.662,1.15h0a.935.935,0,0,1-1.143-.663h0v0A.941.941,0,0,1,1.846.573h0Zm.09.333h0a.588.588,0,0,0-.358.276.6.6,0,0,0-.059.452v0h0a.589.589,0,0,0,.721.418h0A.589.589,0,0,0,2.6,1.778a.6.6,0,0,0,.059-.452h0A.591.591,0,0,0,2.383.965a.585.585,0,0,0-.446-.06h0Z" transform="translate(48.779 22.686)" fill="#080808" fill-rule="evenodd"/>
    <path id="_384378488" d="M1.587.71l0,0h0a.933.933,0,0,1,1.273.342h0l0,0h0a.941.941,0,0,1-.342,1.282h0l0,0h0A.932.932,0,0,1,1.247,2h0l0,0v0A.941.941,0,0,1,1.587.71Zm.176.3h0l0,0a.591.591,0,0,0-.275.36.6.6,0,0,0,.058.45h0l0,0h0a.588.588,0,0,0,.8.216h0l0,0h0a.6.6,0,0,0,.216-.811h0l0,0h0a.589.589,0,0,0-.8-.216Z" transform="translate(47.327 24.59)" fill="#080808" fill-rule="evenodd"/>
    <path id="_384378440" d="M1.372.91l0,0h0a.93.93,0,0,1,1.316,0h0l0,0h0a.941.941,0,0,1,0,1.328h0l0,0h0a.931.931,0,0,1-1.316,0h0l0,0h0a.941.941,0,0,1,0-1.328Zm.247.241h0l0,0h0a.6.6,0,0,0,0,.84h0l0,0h0a.587.587,0,0,0,.829,0h0l0,0h0a.6.6,0,0,0,0-.84h0l0,0h0a.588.588,0,0,0-.828,0Z" transform="translate(46.413 26.806)" fill="#080808" fill-rule="evenodd"/>
    <path id="_384378368" d="M1.217,1.159l0,0A.933.933,0,0,1,2.49.813h0l0,0h0A.94.94,0,0,1,2.837,2.1h0l0,0h0a.933.933,0,0,1-1.273.342h0l0,0a.941.941,0,0,1-.342-1.283Zm.3.17,0,0h0a.6.6,0,0,0,.217.812l0,0h0a.588.588,0,0,0,.8-.216h0l0,0h0A.6.6,0,0,0,2.6,1.474a.591.591,0,0,0-.275-.36h0a.589.589,0,0,0-.8.217Z" transform="translate(46.101 29.185)" fill="#080808" fill-rule="evenodd"/>
    <path id="_384378992" d="M1.131,1.439h0A.936.936,0,0,1,2.272.775h0a.942.942,0,0,1,.662,1.15v0h0a.936.936,0,0,1-1.143.663h0a.942.942,0,0,1-.662-1.15v0Zm.334.089h0a.6.6,0,0,0,.059.452.588.588,0,0,0,.358.276h0a.589.589,0,0,0,.72-.418h0v0a.6.6,0,0,0-.059-.452.587.587,0,0,0-.356-.276h0a.59.59,0,0,0-.721.418Z" transform="translate(46.413 31.564)" fill="#080808" fill-rule="evenodd"/>
    <path id="_384378920" d="M1.119,1.734a.939.939,0,1,1,.274.664A.937.937,0,0,1,1.119,1.734Zm.519-.42a.6.6,0,0,0,0,.841.589.589,0,0,0,.834,0,.6.6,0,0,0,0-.841.589.589,0,0,0-.834,0Z" transform="translate(47.326 33.781)" fill="#080808" fill-rule="evenodd"/>
    <path id="_384454776" d="M1.184,2.02A.941.941,0,0,1,1.846.87h0a.927.927,0,0,1,.708.094.938.938,0,0,1,.435.568h0v0a.941.941,0,0,1-.662,1.15h0a.935.935,0,0,1-1.143-.663h0Zm.393-.54a.6.6,0,0,0-.059.452v0h0a.59.59,0,0,0,.721.418h0a.593.593,0,0,0,.417-.728v0h0a.589.589,0,0,0-.72-.418h0a.59.59,0,0,0-.358.276Z" transform="translate(48.78 35.685)" fill="#080808" fill-rule="evenodd"/>
    <path id="_384454752" d="M2.626,2.684h0a.935.935,0,0,1-1.143-.663h0A.941.941,0,0,1,2.142.87h0a.935.935,0,0,1,1.143.663h0v0a.941.941,0,0,1-.662,1.15Zm-.09-.333h0A.588.588,0,0,0,2.9,2.075a.6.6,0,0,0,.059-.452v0h0A.59.59,0,0,0,2.232,1.2h0a.588.588,0,0,0-.358.276.6.6,0,0,0-.059.452h0a.589.589,0,0,0,.721.418h0Z" transform="translate(61.713 35.685)" fill="#080808" fill-rule="evenodd"/>
    <path id="_384455088" d="M2.885,2.547l0,0h0a.932.932,0,0,1-1.272-.342l0,0h0A.94.94,0,0,1,1.949.921h0l0,0h0a.932.932,0,0,1,1.272.342l0,0h0a.94.94,0,0,1-.342,1.282Zm-.176-.3h0l0,0a.6.6,0,0,0,.217-.811h0l0,0a.589.589,0,0,0-.8-.216h0l0,0h0a.6.6,0,0,0-.216.811h0l0,0a.589.589,0,0,0,.8.217Z" transform="translate(63.166 33.782)" fill="#080808" fill-rule="evenodd"/>
    <path id="_384454080" d="M3.1,2.348l0,0h0a.932.932,0,0,1-1.316,0h0l0,0h0a.941.941,0,0,1,0-1.328h0l0,0h0a.931.931,0,0,1,1.316,0h0l0,0h0a.941.941,0,0,1,0,1.328Zm-.247-.242h0l0,0h0a.6.6,0,0,0,0-.84h0l0,0h0a.589.589,0,0,0-.829,0h0l0,0h0a.6.6,0,0,0,0,.84h0l0,0h0a.589.589,0,0,0,.829,0Z" transform="translate(64.08 31.565)" fill="#080808" fill-rule="evenodd"/>
    <path id="_384454560" d="M3.255,2.1l0,0a.933.933,0,0,1-1.272.343l0,0h0a.941.941,0,0,1-.342-1.283h0l0,0A.933.933,0,0,1,2.909.813h0l0,0A.94.94,0,0,1,3.255,2.1h0Zm-.3-.17,0,0h0a.6.6,0,0,0,.059-.451.589.589,0,0,0-.275-.36l0,0h0a.589.589,0,0,0-.8.217l0,0h0a.6.6,0,0,0,.217.811h0a.588.588,0,0,0,.8-.216Z" transform="translate(64.392 29.186)" fill="#080808" fill-rule="evenodd"/>
    <path id="_384454368" d="M3.341,1.819h0A.936.936,0,0,1,2.2,2.483h0a.941.941,0,0,1-.661-1.15v0h0A.935.935,0,0,1,2.677.666h0a.94.94,0,0,1,.662,1.15v0ZM3.007,1.73h0a.6.6,0,0,0-.059-.452A.587.587,0,0,0,2.591,1h0a.59.59,0,0,0-.721.418h0v0a.6.6,0,0,0,.059.452.59.59,0,0,0,.356.276h0a.585.585,0,0,0,.446-.06.591.591,0,0,0,.275-.359Z" transform="translate(64.08 26.807)" fill="#080808" fill-rule="evenodd"/>
    <path id="_384454608" d="M3.353,1.524a.938.938,0,0,1-.936.939A.94.94,0,0,1,1.756.86a.932.932,0,0,1,1.324,0A.941.941,0,0,1,3.353,1.524Zm-.519.42a.6.6,0,0,0,0-.84A.589.589,0,0,0,2,1.1a.6.6,0,0,0,0,.84.589.589,0,0,0,.834,0Z" transform="translate(63.166 24.59)" fill="#080808" fill-rule="evenodd"/>
    <path id="_384454200" d="M3.288,1.238a.942.942,0,0,1-.662,1.15h0a.936.936,0,0,1-1.143-.663h0v0A.941.941,0,0,1,2.142.572h0a.936.936,0,0,1,1.143.663h0v0Zm-.393.54a.6.6,0,0,0,.059-.452v0h0a.589.589,0,0,0-.72-.418h0a.588.588,0,0,0-.358.276.6.6,0,0,0-.059.452h0a.591.591,0,0,0,.275.359.585.585,0,0,0,.446.06h0A.588.588,0,0,0,2.9,1.777Z" transform="translate(61.713 22.686)" fill="#080808" fill-rule="evenodd"/>
    <path id="_384454464" d="M3.15.977A.941.941,0,0,1,2.809,2.26l0,0h0a.931.931,0,0,1-1.273-.342l0,0h0A.941.941,0,0,1,1.873.633l0,0h0A.933.933,0,0,1,3.149.974l0,0h0ZM2.91,1.6a.6.6,0,0,0-.058-.451h0l0,0a.589.589,0,0,0-.8-.217h0l0,0a.6.6,0,0,0-.217.811h0l0,0a.589.589,0,0,0,.8.217h0l0,0A.59.59,0,0,0,2.91,1.6Z" transform="translate(59.819 21.226)" fill="#080808" fill-rule="evenodd"/>
    <path id="_384454440" d="M2.952.762a.941.941,0,0,1,0,1.328h0l0,0h0a.931.931,0,0,1-1.316,0h0l0,0h0a.941.941,0,0,1,0-1.328h0l0,0h0a.931.931,0,0,1,1.316,0h0l0,0h0Zm-.072.664a.6.6,0,0,0-.172-.42h0l0,0h0a.589.589,0,0,0-.829,0h0l0,0h0a.6.6,0,0,0,0,.84h0l0,0h0a.587.587,0,0,0,.829,0h0l0,0h0A.6.6,0,0,0,2.88,1.426Z" transform="translate(57.613 20.307)" fill="#080808" fill-rule="evenodd"/>
    <path id="_384453912" d="M2.64.809a.8.8,0,0,1-.428.282.8.8,0,0,1-.51-.035A.8.8,0,0,1,1.248.565l.308-.1A.476.476,0,0,0,2.385.61l.255.2Z" transform="translate(52.97 19.337)" fill="#080808" fill-rule="evenodd"/>
    <path id="_384453480" d="M3.329.529A2.065,2.065,0,0,1,4.99,3.806a1.668,1.668,0,0,0-.166-.581,1.641,1.641,0,0,0-.348-1.787,1.617,1.617,0,0,0-2.293,0,1.641,1.641,0,0,0-.348,1.787,1.672,1.672,0,0,0-.166.581A2.063,2.063,0,0,1,3.329.529Z" transform="translate(54.153 22.195)" fill="#080808" fill-rule="evenodd"/>
    <path id="_384453240" d="M3.164.564A1.9,1.9,0,0,1,4.5,3.8,1.889,1.889,0,0,1,1.831,1.119,1.874,1.874,0,0,1,3.164.564Zm1.027.86a1.449,1.449,0,0,0-2.054,0,1.47,1.47,0,0,0,0,2.068,1.449,1.449,0,0,0,2.054,0,1.47,1.47,0,0,0,0-2.068Z" transform="translate(54.318 23.71)" fill="#080808" fill-rule="evenodd"/>
    <path id="_384453504" d="M2.222.585A.925.925,0,1,1,1.57.858.918.918,0,0,1,2.222.585Zm.346.576a.49.49,0,0,0-.692,0,.5.5,0,0,0,0,.7.489.489,0,0,0,.692,0,.5.5,0,0,0,0-.7Z" transform="translate(55.26 24.657)" fill="#080808" fill-rule="evenodd"/>
    <path id="_384453624" d="M1.951.761,5.81,4.393a.753.753,0,0,0-.262.024.722.722,0,0,0-.153.06L1.724,1.021Q1.844.9,1.951.761ZM6.5,5.043l.014.013.129.122L6.518,5.3l-.03.03A.759.759,0,0,0,6.5,5.043ZM5.92,5.9l-.028.028-.127.127-.122-.131-.012-.013A.755.755,0,0,0,5.92,5.9Zm-.935-.682L1.371,1.344c.09-.072.177-.148.259-.228L5.068,4.8A.766.766,0,0,0,4.985,5.222Z" transform="translate(58.351 32.305)" fill="#080808" fill-rule="evenodd"/>
    <g id="组_10" data-name="组 10" transform="translate(53.298 34.367)">
      <path id="_384453216" d="M1.318,2.841s.7-1.131.026-1.808L1.588.79c.867.871.028,2.226.026,2.23l-.3-.179Z" transform="translate(2.718 -0.79)" fill="#080808" fill-rule="evenodd"/>
      <path id="_384453360" d="M1.677,3.02S.836,1.661,1.7.79l.244.244c-.673.676.024,1.8.026,1.808l-.3.179Z" transform="translate(2.359 -0.79)" fill="#080808" fill-rule="evenodd"/>
      <path id="_384349688" d="M1.231,3.095A5.156,5.156,0,0,0,5.161.834l.3.169A5.519,5.519,0,0,1,1.252,3.44Z" transform="translate(-1.099 1.169)" fill="#080808" fill-rule="evenodd"/>
      <path id="_384349232" d="M5.648,3.508A5.674,5.674,0,0,1,1.317,1l.3-.169A5.31,5.31,0,0,0,5.668,3.164Z" transform="translate(2.685 1.169)" fill="#080808" fill-rule="evenodd"/>
      <path id="_384349112" d="M1.632.853c0,.005.814,1.722-.02,2.82l-.275-.208C2.044,2.534,1.32,1,1.318,1L1.632.853Z" transform="translate(2.709 1.98)" fill="#080808" fill-rule="evenodd"/>
      <path id="_384349520" d="M5.274,4c.706-.93-.018-2.463-.02-2.468l0,0a.56.56,0,0,0-.485-.342,3.814,3.814,0,0,0-1.785.544A4.565,4.565,0,0,0,1.514,3.088L1.228,2.9A4.921,4.921,0,0,1,2.807,1.431,4.158,4.158,0,0,1,4.756.841a.918.918,0,0,1,.815.552h0c.046.1.787,1.75-.022,2.815L5.274,4Z" transform="translate(-1.228 1.445)" fill="#080808" fill-rule="evenodd"/>
      <path id="_384348872" d="M1.232,3.112A5.156,5.156,0,0,0,5.162.852l.3.169A5.517,5.517,0,0,1,1.253,3.457l-.021-.345Z" transform="translate(-1.052 1.956)" fill="#080808" fill-rule="evenodd"/>
      <path id="_384348848" d="M5.528,3.457a5.517,5.517,0,0,1-4.21-2.436l.3-.169A5.155,5.155,0,0,0,5.55,3.112Z" transform="translate(2.714 1.956)" fill="#080808" fill-rule="evenodd"/>
      <path id="_384349472" d="M1.686,4.209c-.809-1.065-.068-2.715-.022-2.815h0A.918.918,0,0,1,2.479.841a4.158,4.158,0,0,1,1.949.59A4.921,4.921,0,0,1,6.007,2.9l-.287.193A4.565,4.565,0,0,0,4.253,1.73a3.814,3.814,0,0,0-1.785-.544.56.56,0,0,0-.485.342l0,0S1.254,3.07,1.961,4Z" transform="translate(2.36 1.445)" fill="#080808" fill-rule="evenodd"/>
      <path id="_384349088" d="M1.621.795a3.022,3.022,0,0,0,.493,1.278,2.866,2.866,0,0,0,.971.907l-.17.3A3.2,3.2,0,0,1,1.828,2.265,3.4,3.4,0,0,1,1.276.825l.345-.03Z" transform="translate(0.898 -0.566)" fill="#080808" fill-rule="evenodd"/>
      <path id="_384422048" d="M1.56.811a3.015,3.015,0,0,0,.965.969,2.841,2.841,0,0,0,1.252.435l-.034.344a3.187,3.187,0,0,1-1.4-.487A3.391,3.391,0,0,1,1.257.977Z" transform="translate(0.066 0.135)" fill="#080808" fill-rule="evenodd"/>
      <path id="_384421664" d="M3.135.825a3.411,3.411,0,0,1-.551,1.441A3.2,3.2,0,0,1,1.5,3.28l-.171-.3A2.861,2.861,0,0,0,2.3,2.073,3.015,3.015,0,0,0,2.79.795l.345.03Z" transform="translate(3.056 -0.566)" fill="#080808" fill-rule="evenodd"/>
      <path id="_384421760" d="M3.848.977A3.382,3.382,0,0,1,2.765,2.072a3.191,3.191,0,0,1-1.4.487l-.034-.344A2.839,2.839,0,0,0,2.58,1.78,3,3,0,0,0,3.545.811Z" transform="translate(3.145 0.135)" fill="#080808" fill-rule="evenodd"/>
    </g>
    <path id="_384421424" d="M6.182,4.114A1.315,1.315,0,0,0,6.425,3.9a1.582,1.582,0,0,0,.393-.941A1.691,1.691,0,0,0,6.543,1.9a1.753,1.753,0,0,0-.285-.331,2.036,2.036,0,0,0-1.945-.381,6.151,6.151,0,0,1-1.027.1A5.043,5.043,0,0,1,2.353,1.2,1.789,1.789,0,0,1,1.484.8L1.706.563a1.478,1.478,0,0,0,.711.315,4.713,4.713,0,0,0,.87.081A5.94,5.94,0,0,0,4.265.865a2.293,2.293,0,0,1,2.212.462,2.1,2.1,0,0,1,.336.392,2.012,2.012,0,0,1,.329,1.268,1.906,1.906,0,0,1-.476,1.135,1.64,1.64,0,0,1-.3.261Z" transform="translate(63.28 23.667)" fill="#080808" fill-rule="evenodd"/>
    <path id="_384421280" d="M2.052,1.4l.169-.3c-.054-.035-.1-.068-.149-.1l-.194.286C1.934,1.321,1.992,1.359,2.052,1.4Z" transform="translate(80.474 42.654)" fill="#080808" fill-rule="evenodd"/>
    <path id="_384421856" d="M3.411,7.258l.548-.981-.064.066A12.551,12.551,0,0,1,1.763,8.035l.189.289A15.368,15.368,0,0,0,3.411,7.258Zm2-3.591.473-.848c0-.06,0-.119.005-.178a3.851,3.851,0,0,0-.33-1.63l-.315.141a3.513,3.513,0,0,1,.3,1.486,4.591,4.591,0,0,1-.134,1.028Z" transform="translate(75.476 43.313)" fill="#080808" fill-rule="evenodd"/>
    <path id="_384421712" d="M1.172,1.9,3.287.262,3.5.535,1.383,2.176Z" transform="translate(49.656 10.529)" fill="#080808" fill-rule="evenodd"/>
    <path id="_384421568" d="M3.534,2.176,1.42.535,1.631.262,3.745,1.9Z" transform="translate(60.467 10.529)" fill="#080808" fill-rule="evenodd"/>
    <path id="_384442312" d="M1.874.25H1.316c.062.042.121.083.178.125l.1.074L1.7.375c.057-.041.116-.083.178-.125Z" transform="translate(55.925 9.988)" fill="#080808" fill-rule="evenodd"/>
    <path id="_384442144" d="M.482,5.5c0-.115-.008-.243-.013-.384S.462,4.891.462,4.869A1.994,1.994,0,0,1,.794,3.627,2.489,2.489,0,0,1,1.95,2.905l.775-.259q1.48-.5,1.481-.91a.657.657,0,0,0-.351-.565,1.642,1.642,0,0,0-.9-.223,2.731,2.731,0,0,0-.974.19,4.974,4.974,0,0,0-1.075.6l-.4-.514A4.531,4.531,0,0,1,1.69.546a3.412,3.412,0,0,1,1.2-.219,2.416,2.416,0,0,1,1.443.4A1.205,1.205,0,0,1,4.9,1.746q0,.817-1.843,1.433c-.106.039-.184.066-.237.082a4.514,4.514,0,0,0-1.405.645.953.953,0,0,0-.278.727c0,.028,0,.059,0,.093s.007.087.016.161H4.994V5.5H.482Zm7.97-1.842h3.023v-2.4ZM11.475,5.5V4.278H7.436v-.62L11.475.446h.66V3.657h.847v.62h-.847V5.5ZM16.782.071h.583L14.833,6.415h-.581L16.782.071ZM19.973,5.5l3.1-4.433H19.184V.446h5.133L20.753,5.5h-.78ZM33.045,3.8l.532.394a2.616,2.616,0,0,1-1,1.066,2.8,2.8,0,0,1-1.443.373,2.657,2.657,0,0,1-1.97-.786,2.721,2.721,0,0,1-.777-1.995,2.721,2.721,0,0,1,.778-2A2.657,2.657,0,0,1,31.13.071a2.807,2.807,0,0,1,1.343.322,2.607,2.607,0,0,1,.985.919l-.553.394a1.812,1.812,0,0,0-.721-.746,2.084,2.084,0,0,0-1.052-.27,1.963,1.963,0,0,0-1.481.614,2.154,2.154,0,0,0-.586,1.55,2.149,2.149,0,0,0,.586,1.55,1.967,1.967,0,0,0,1.481.611,2.026,2.026,0,0,0,1.11-.309,2.34,2.34,0,0,0,.8-.9Zm5.023,1.212a1.973,1.973,0,0,0,1.483-.611,2.149,2.149,0,0,0,.586-1.55A2.16,2.16,0,0,0,39.552,1.3a2.1,2.1,0,0,0-2.967,0A2.154,2.154,0,0,0,36,2.856a2.149,2.149,0,0,0,.586,1.55,1.973,1.973,0,0,0,1.483.611Zm0,.62A2.651,2.651,0,0,1,36.1,4.85a2.721,2.721,0,0,1-.777-1.995,2.716,2.716,0,0,1,.78-2,2.861,2.861,0,0,1,3.944,0,2.714,2.714,0,0,1,.783,1.995,2.712,2.712,0,0,1-.781,1.995,2.673,2.673,0,0,1-1.978.786Zm4.4-.937.384-.57a4.576,4.576,0,0,0,1.173.667,3.409,3.409,0,0,0,1.2.23,2.081,2.081,0,0,0,1.2-.312.937.937,0,0,0,.46-.8.773.773,0,0,0-.33-.641,1.722,1.722,0,0,0-.911-.3c-.094-.01-.228-.02-.4-.028a5.985,5.985,0,0,1-1.786-.309,1.407,1.407,0,0,1-.563-.46,1.1,1.1,0,0,1-.192-.634A1.254,1.254,0,0,1,43.268.485,2.472,2.472,0,0,1,44.754.071,4.055,4.055,0,0,1,46.065.29,4.479,4.479,0,0,1,47.3.938l-.384.552a3.715,3.715,0,0,0-1.033-.6,3.2,3.2,0,0,0-1.113-.2,1.905,1.905,0,0,0-.991.235.68.68,0,0,0-.389.586.537.537,0,0,0,.062.254.717.717,0,0,0,.192.218,2.973,2.973,0,0,0,1.415.312c.333.02.593.04.775.063a2.222,2.222,0,0,1,1.281.519,1.368,1.368,0,0,1,.471,1.052,1.465,1.465,0,0,1-.647,1.225,2.784,2.784,0,0,1-1.7.481,4.6,4.6,0,0,1-1.474-.23,4.433,4.433,0,0,1-1.3-.708Zm7.343.8V.189h.611L52.566,3.44,54.724.189h.6V5.5h-.65V1.353L52.566,4.494,50.458,1.353V5.5h-.65Zm8.055,0V.189H62.04V.8H58.523V2.357h2.128v.61H58.523V4.888h3.734V5.5H57.863Zm7.287,0V.8H62.914V.189h5.132V.8H65.81V5.5h-.66Zm4.176,0V.16H70V5.5ZM76.812,3.8l.532.394a2.62,2.62,0,0,1-1,1.066,2.8,2.8,0,0,1-1.443.373,2.655,2.655,0,0,1-1.97-.786,2.721,2.721,0,0,1-.777-1.995,2.721,2.721,0,0,1,.778-2A2.657,2.657,0,0,1,74.9.071a2.808,2.808,0,0,1,1.343.322,2.6,2.6,0,0,1,.985.919l-.553.394a1.807,1.807,0,0,0-.72-.746A2.087,2.087,0,0,0,74.9.692a1.963,1.963,0,0,0-1.481.614,2.154,2.154,0,0,0-.586,1.55,2.149,2.149,0,0,0,.586,1.55,1.967,1.967,0,0,0,1.481.611,2.023,2.023,0,0,0,1.11-.309,2.341,2.341,0,0,0,.8-.9Z" transform="translate(18.617 2.18)" fill="#080808" fill-rule="evenodd"/>
    <path id="_384441808" d="M.27,2.446.6,2.25c.122-.072.193-.113.213-.124a2,2,0,0,1,1.248-.3,2.489,2.489,0,0,1,1.188.668c.147.135.346.322.6.556q1.144,1.061,1.508.863a.658.658,0,0,0,.327-.579,1.644,1.644,0,0,0-.236-.9,2.72,2.72,0,0,0-.634-.763,4.957,4.957,0,0,0-1.04-.657L4.037.419A4.545,4.545,0,0,1,5.2,1.13a3.4,3.4,0,0,1,.769.952A2.416,2.416,0,0,1,6.3,3.541a1.206,1.206,0,0,1-.624.977q-.717.392-2.142-.93c-.085-.074-.146-.13-.186-.168A4.511,4.511,0,0,0,2.113,2.5a.952.952,0,0,0-.771.106c-.024.013-.051.03-.08.047s-.073.047-.133.092L2.97,6.112,2.435,6.4.27,2.446ZM5.71,8.555l1.45,2.652,2.109-1.153L5.71,8.555Zm-.167,3.536,1.072-.586L4.678,7.961l.544-.3,4.756,2,.317.579L7.477,11.787l.406.743-.545.3-.406-.744L5.86,12.67l-.317-.579Zm7.308,2.053.28.511-6.781.822-.279-.51,6.78-.823Zm-3.232,5.4,5.378.6L13.131,16.73l.545-.3,2.462,4.5-6.144-.7Zm7.757,10.658-.09.656a2.62,2.62,0,0,1-1.415-.367,2.8,2.8,0,0,1-1.019-1.088A2.656,2.656,0,0,1,14.6,27.3a2.952,2.952,0,0,1,3.5-1.914,2.658,2.658,0,0,1,1.633,1.348,2.818,2.818,0,0,1,.362,1.333,2.608,2.608,0,0,1-.334,1.305l-.611-.3a1.811,1.811,0,0,0,.308-.99,2.089,2.089,0,0,0-.269-1.052,1.965,1.965,0,0,0-1.249-1.005,2.342,2.342,0,0,0-2.72,1.487,1.964,1.964,0,0,0,.175,1.593,2.026,2.026,0,0,0,.8.825A2.338,2.338,0,0,0,17.376,30.205Zm1.346,4.989A1.971,1.971,0,0,0,19.97,36.2a2.349,2.349,0,0,0,2.723-1.487,2.1,2.1,0,0,0-1.426-2.6,2.341,2.341,0,0,0-2.72,1.487,1.973,1.973,0,0,0,.175,1.594Zm-.545.3a2.651,2.651,0,0,1-.255-2.106,2.95,2.95,0,0,1,3.505-1.912,2.86,2.86,0,0,1,1.888,3.462,2.934,2.934,0,0,1-3.5,1.915,2.672,2.672,0,0,1-1.639-1.359ZM21.11,38.9l.684.064a4.577,4.577,0,0,0-.023,1.348,3.4,3.4,0,0,0,.377,1.168,2.077,2.077,0,0,0,.847.9.937.937,0,0,0,.925.019.773.773,0,0,0,.4-.6,1.723,1.723,0,0,0-.174-.943c-.036-.087-.092-.209-.169-.368a5.96,5.96,0,0,1-.586-1.715,1.406,1.406,0,0,1,.133-.715,1.1,1.1,0,0,1,.464-.472,1.257,1.257,0,0,1,1.2,0,2.477,2.477,0,0,1,1.076,1.105,4.073,4.073,0,0,1,.438,1.255,4.508,4.508,0,0,1,.021,1.39l-.668-.072a3.7,3.7,0,0,0,.029-1.193A3.2,3.2,0,0,0,25.73,39a1.907,1.907,0,0,0-.682-.757.68.68,0,0,0-.7-.061.536.536,0,0,0-.193.177.714.714,0,0,0-.1.273,2.98,2.98,0,0,0,.4,1.391c.143.3.25.539.317.71a2.223,2.223,0,0,1,.159,1.373,1.366,1.366,0,0,1-.7.918,1.465,1.465,0,0,1-1.385.02,2.78,2.78,0,0,1-1.236-1.258,4.586,4.586,0,0,1-.506-1.4,4.424,4.424,0,0,1,0-1.478Zm2.82,6.827L28.59,43.18l.293.536L27.06,47.159l3.887.334.288.527-4.659,2.547L26.265,50,29.9,48.008l-3.767-.343,1.745-3.356L24.243,46.3l-.312-.57Zm3.864,7.068,4.659-2.547,2,3.665-.536.293L32.234,51.12l-1.365.747,1.02,1.867-.536.293L30.333,52.16l-1.685.921,1.791,3.276-.536.293-2.107-3.855Zm3.5,6.394,4.123-2.254L34.34,54.973l.536-.293,2.462,4.5-.536.293L35.73,57.514l-4.123,2.254-.316-.579Zm2,3.664,4.684-2.561.322.588-4.685,2.561-.321-.588Zm5.077,5.756-.09.656a2.616,2.616,0,0,1-1.415-.368,2.79,2.79,0,0,1-1.019-1.087A2.656,2.656,0,0,1,35.59,65.7a2.953,2.953,0,0,1,3.5-1.914,2.658,2.658,0,0,1,1.633,1.348,2.818,2.818,0,0,1,.362,1.333,2.613,2.613,0,0,1-.334,1.305l-.611-.3a1.815,1.815,0,0,0,.308-.99,2.088,2.088,0,0,0-.269-1.052,1.965,1.965,0,0,0-1.249-1.005,2.342,2.342,0,0,0-2.72,1.487,1.965,1.965,0,0,0,.174,1.592,2.028,2.028,0,0,0,.8.826,2.346,2.346,0,0,0,1.178.272Z" transform="translate(10.235 17.37)" fill="#080808" fill-rule="evenodd"/>
    <path id="_384441952" d="M5.237,69.315,4.9,69.138c-.125-.065-.2-.1-.218-.115a1.992,1.992,0,0,1-.918-.9A2.489,2.489,0,0,1,3.7,66.762c.037-.2.09-.464.154-.8q.3-1.532-.064-1.736a.658.658,0,0,0-.665.028,1.649,1.649,0,0,0-.637.674,2.736,2.736,0,0,0-.312.941A4.981,4.981,0,0,0,2.168,67.1l-.642.092a4.561,4.561,0,0,1-.009-1.36,3.418,3.418,0,0,1,.4-1.155,2.416,2.416,0,0,1,1.06-1.059,1.205,1.205,0,0,1,1.159.013q.712.4.342,2.31c-.017.111-.033.192-.044.246a4.515,4.515,0,0,0-.129,1.541.954.954,0,0,0,.5.6c.024.014.052.027.083.043s.079.037.148.065l1.888-3.346.532.3-2.217,3.93Zm2.312-7.847,1.485-2.632L6.941,57.655l.608,3.814Zm3.089-1.727-1.064-.6L7.59,62.659l-.541-.3-.812-5.1.325-.575,2.8,1.578.416-.738.541.3-.416.737,1.064.6Zm-2.12-7.289.287-.508,4.281,5.322-.286.506L8.519,52.452Zm6.3-.112-2.336-4.881-1.912,3.389-.541-.3,2.522-4.47,2.65,5.587-.383.679Zm4.947-12.218.6-.27a2.617,2.617,0,0,1,.436,1.4,2.8,2.8,0,0,1-.385,1.44,2.657,2.657,0,0,1-1.653,1.329,2.953,2.953,0,0,1-3.477-1.963,2.66,2.66,0,0,1,.282-2.1,2.821,2.821,0,0,1,.94-1.012,2.6,2.6,0,0,1,1.285-.406l.071.675a1.811,1.811,0,0,0-1,.261,2.086,2.086,0,0,0-.752.784,1.961,1.961,0,0,0-.193,1.592,2.342,2.342,0,0,0,2.7,1.523,1.966,1.966,0,0,0,1.259-.989,2.028,2.028,0,0,0,.277-1.119,2.336,2.336,0,0,0-.392-1.143Zm3.524-3.779a1.972,1.972,0,0,0,.2-1.592,2.348,2.348,0,0,0-2.7-1.526,2.1,2.1,0,0,0-1.455,2.586,2.342,2.342,0,0,0,2.7,1.523A1.973,1.973,0,0,0,23.286,36.343Zm.54.306a2.653,2.653,0,0,1-1.653,1.33A2.95,2.95,0,0,1,18.7,36.014a2.861,2.861,0,0,1,1.941-3.433,2.935,2.935,0,0,1,3.475,1.959,2.673,2.673,0,0,1-.287,2.109Zm1.345-4.292-.307-.614a4.59,4.59,0,0,0,1.156-.694,3.413,3.413,0,0,0,.793-.936,2.082,2.082,0,0,0,.315-1.194.937.937,0,0,0-.473-.8.771.771,0,0,0-.72-.027,1.723,1.723,0,0,0-.709.646c-.055.077-.129.189-.223.338a5.968,5.968,0,0,1-1.146,1.4,1.412,1.412,0,0,1-.677.265,1.1,1.1,0,0,1-.647-.144,1.258,1.258,0,0,1-.638-1.018,2.476,2.476,0,0,1,.37-1.5,4.065,4.065,0,0,1,.835-1.035,4.484,4.484,0,0,1,1.169-.752l.292.606a3.709,3.709,0,0,0-1.028.606,3.2,3.2,0,0,0-.721.871,1.907,1.907,0,0,0-.283.979.68.68,0,0,0,.319.627.544.544,0,0,0,.252.071.715.715,0,0,0,.285-.06,2.981,2.981,0,0,0,.967-1.079c.181-.281.326-.5.435-.645a2.222,2.222,0,0,1,1.081-.86,1.367,1.367,0,0,1,1.148.107,1.467,1.467,0,0,1,.749,1.166,2.782,2.782,0,0,1-.415,1.715,4.594,4.594,0,0,1-.925,1.171,4.421,4.421,0,0,1-1.253.782Zm4.3-6-4.624-2.609.3-.532,3.886-.273-1.771-3.476.3-.523,4.624,2.609-.32.566-3.61-2.037,1.7,3.379-3.772.293,3.611,2.037-.32.566Zm3.959-7.016L28.809,16.73l2.052-3.637.532.3-1.728,3.063,1.355.765,1.046-1.853.532.3-1.045,1.854,1.673.944,1.835-3.252.532.3L33.433,19.34Zm3.58-6.347-4.092-2.309-1.1,1.947-.532-.3,2.522-4.47.532.3-1.1,1.947,4.092,2.309Zm2.052-3.637-4.65-2.623.329-.584,4.65,2.623-.329.584ZM41.269,2l.6-.27a2.617,2.617,0,0,1,.436,1.4,2.794,2.794,0,0,1-.385,1.44A2.658,2.658,0,0,1,40.272,5.9a2.722,2.722,0,0,1-2.119-.3,2.723,2.723,0,0,1-1.358-1.66,2.656,2.656,0,0,1,.282-2.1,2.812,2.812,0,0,1,.94-1.012A2.608,2.608,0,0,1,39.3.419l.071.675a1.817,1.817,0,0,0-1,.261,2.09,2.09,0,0,0-.752.784,1.963,1.963,0,0,0-.193,1.592A2.154,2.154,0,0,0,38.486,5a2.148,2.148,0,0,0,1.638.251,1.966,1.966,0,0,0,1.26-.989,2.028,2.028,0,0,0,.276-1.119A2.342,2.342,0,0,0,41.269,2Z" transform="translate(62.648 17.37)" fill="#080808" fill-rule="evenodd"/>
    <path id="_384441640" d="M1.65,1.379a.3.3,0,1,0-.294-.3A.294.294,0,0,0,1.65,1.379Z" transform="translate(57.668 33.527)" fill="#080808" fill-rule="evenodd"/>
    <path id="_384441712" d="M1.567,1.379a.3.3,0,1,0-.294-.3A.294.294,0,0,0,1.567,1.379Z" transform="translate(54.078 33.527)" fill="#080808" fill-rule="evenodd"/>
  </g>
</svg>
