<svg id="组_9" data-name="组 9" xmlns="http://www.w3.org/2000/svg" width="85.844" height="14.149" viewBox="0 0 85.844 14.149">
  <path id="_385491232" d="M2.551,3.28H2.407v-.3h.144c.139,0,.214.036.214.141s-.075.156-.214.156Zm.363-.156c0-.187-.148-.251-.345-.251H2.256v.866h.15V3.39h.154l.217.349h.17l-.234-.367a.245.245,0,0,0,.2-.248h0Z" transform="translate(82.421 4.791)" fill="#332c2b" fill-rule="evenodd"/>
  <path id="_385491112" d="M3.109,4.343h0a.731.731,0,0,1-.762-.692.731.731,0,0,1,.762-.692.73.73,0,0,1,.762.692.73.73,0,0,1-.762.692Zm0-1.478a.83.83,0,0,0-.866.786.83.83,0,0,0,.866.785.829.829,0,0,0,.866-.785.829.829,0,0,0-.866-.786Z" transform="translate(81.869 4.446)" fill="#332c2b" fill-rule="evenodd"/>
  <path id="_385491784" d="M4.169,3.163h0A.174.174,0,0,1,4.35,3h1.4a.174.174,0,0,1,.182.165V6.532a.174.174,0,0,1-.182.165H4.35a.174.174,0,0,1-.182-.165ZM2.3,3h.539a.174.174,0,0,1,.182.165V6.532a.174.174,0,0,1-.182.165H2.1l.192.29h.539a.174.174,0,0,1,.182.165V11.3l.688-.112a.51.51,0,0,0,.463-.488V7.152a.174.174,0,0,1,.182-.165h1.4a.174.174,0,0,1,.182.165v3.554a.51.51,0,0,0,.463.488l.689.112V7.152a.174.174,0,0,1,.181-.165h.476V6.7H7.263a.174.174,0,0,1-.181-.165V3.163A.174.174,0,0,1,7.263,3h.476v-.29H2.1L2.3,3Z" transform="translate(75.744 -2.422)" fill="#332c2b" fill-rule="evenodd"/>
  <path id="_385491208" d="M5.128,6.992h0A3.35,3.35,0,0,1,4.579,8.8a3.353,3.353,0,0,1-.548-1.813V4.829a.174.174,0,0,1,.181-.165h.734a.174.174,0,0,1,.182.165Zm.266,2.557A3.692,3.692,0,0,0,6.408,6.992V4.829a.174.174,0,0,1,.181-.165h.439v-.29H6.589a.174.174,0,0,1-.181-.165V2.716l-.817.111a.512.512,0,0,0-.463.489v.893a.174.174,0,0,1-.182.165H4.212a.174.174,0,0,1-.181-.165V3.315a.512.512,0,0,0-.464-.489l-.817-.111V4.209a.174.174,0,0,1-.181.165H2l.192.29h.375a.174.174,0,0,1,.181.165V6.992A3.692,3.692,0,0,0,3.765,9.549a.154.154,0,0,1-.013.223,6.22,6.22,0,0,1-1.757,1.111l.032.108a8.961,8.961,0,0,0,2.462-.749.2.2,0,0,1,.182,0,8.953,8.953,0,0,0,2.461.749l.032-.108A6.227,6.227,0,0,1,5.407,9.772a.154.154,0,0,1-.013-.223h0Z" transform="translate(71.004 -2.107)" fill="#332c2b" fill-rule="evenodd"/>
  <path id="_385491856" d="M10.038,7.082,9.6,4.814a.17.17,0,0,1,.179-.193H11.6V4.33h-1.6a.559.559,0,0,0,.1-.526.642.642,0,0,0-.251-.315,3.647,3.647,0,0,0-1.344-.361,2.592,2.592,0,0,1,.321,1.026.558.558,0,0,0,.092.177H7.777A.174.174,0,0,1,7.6,4.165V3.3a.512.512,0,0,0-.463-.489L6.188,2.7V4.165a.174.174,0,0,1-.182.165H1.988l.192.29H4.135a.171.171,0,0,1,.179.193L3.873,7.082c-.521,2.679-1.626,3.706-2.16,4.057l.02.1a4.635,4.635,0,0,0,3.4-3.957l.491-2.527A.177.177,0,0,1,5.8,4.62h.2a.174.174,0,0,1,.182.165v6.975l.944-.112A.511.511,0,0,0,7.6,11.16V4.785a.174.174,0,0,1,.182-.165h.331a.178.178,0,0,1,.179.136l.491,2.527a4.635,4.635,0,0,0,3.4,3.957l.02-.1c-.535-.351-1.639-1.378-2.16-4.057h0Z" transform="translate(58.693 -2.702)" fill="#332c2b" fill-rule="evenodd"/>
  <path id="_385491520" d="M6.671,2.754l-.951.571a5.045,5.045,0,0,0-1.053-.413,5.222,5.222,0,0,0-1.358-.177,3.488,3.488,0,0,0-2.123.6A1.829,1.829,0,0,0,.362,4.872,1.619,1.619,0,0,0,.635,5.8a2.076,2.076,0,0,0,.819.671,7.926,7.926,0,0,0,2.4.545c.189.019.335.035.437.049a4.7,4.7,0,0,1,1.6.4.8.8,0,0,1,.4.722.987.987,0,0,1-.56.876,3,3,0,0,1-1.523.329,4.024,4.024,0,0,1-2.144-.529A4.038,4.038,0,0,1,.573,7.2H.487V9.634H.659l.941-.6a4.5,4.5,0,0,0,1.132.448,5.833,5.833,0,0,0,1.457.177,3.612,3.612,0,0,0,2.189-.59,1.9,1.9,0,0,0,.8-1.608,1.727,1.727,0,0,0-.618-1.384,3.585,3.585,0,0,0-1.823-.7c-.217-.031-.519-.073-.911-.123Q1.368,4.941,1.367,4.124A.915.915,0,0,1,1.882,3.3,2.981,2.981,0,0,1,3.339,3a3.918,3.918,0,0,1,1.9.442A4.22,4.22,0,0,1,6.691,4.83h.087V2.735H6.691l-.021.019ZM18.094,9.411v.053H13.631V9.411c1.04-.662,1.176-.667,1.176-1.484V6.093H11.648V7.928c0,.8.327.886,1.176,1.484v.053H8.361V9.411c.762-.485,1.516-.642,1.516-1.484V4.576c0-1.022-.6-1.033-1.516-1.618V2.905h4.462v.053c-.959.676-1.176.487-1.176,1.6V5.753h3.159V4.576c0-1.28.1-.806-1.176-1.618V2.905h4.463v.053c-.774.545-1.516.73-1.516,1.618V7.945c0,.714.974,1.084,1.516,1.466h0ZM40.666,7.127h2.946l-1.218-2.68h-.229ZM39.72,8.1l3.015-5.3h.711L45.954,8.27a3.149,3.149,0,0,0,1.04,1.115v.051H43.154V9.385c1.05-.8,1.153-.728.746-1.632l-.128-.286H40.5l-.156.27c-.255.442.364,1.035.937,1.648v.051H38.561V9.385A5.808,5.808,0,0,0,39.72,8.1ZM38.459,2.877h.425v.038l-1.111.72a1.539,1.539,0,0,0-.64.692L35.784,6.393V7.82c0,.965.624,1.009,1.494,1.562v.054H32.491V9.382C33.384,8.813,34,8.783,34,7.791V6.827l-.886-1.589c-.608-1.09-.569-.976-1.6-1.683L30.6,2.927V2.877h4.279v.046c-.9.618-.921.367-.417,1.274l1.116,2.008,1.3-1.962c.376-.566.388-.432-.153-.784l-.852-.552v-.03h2.587Zm18.622.046V2.877H53.5v.046c.923.645,1.757,1.137,1.757,1.879v3.4L50.921,2.877H47.269v.049l1.279.878c.65.6.563.526.563,1.535V7.626c0,.675-.827,1.183-1.588,1.763v.047H50.83V9.389c-.713-.6-1.451-1.081-1.451-1.77V3.663l4.063,4.96.666.813h1.4V4.8c0-.81.695-1.2,1.567-1.874h0ZM19.31,2.905H23.6v.06c-.951.605-1.516.589-1.516,1.646V7.422a1.856,1.856,0,0,0,.529,1.466,2.514,2.514,0,0,0,1.678.463,2.664,2.664,0,0,0,1.841-.505,2.364,2.364,0,0,0,.541-1.778V4.6c0-.756-1.136-1.181-1.814-1.646V2.905H28.7v.047c-.634.435-1.743.886-1.743,1.646V7.193a2.3,2.3,0,0,1-.683,1.9,3.743,3.743,0,0,1-2.306.546,7.687,7.687,0,0,1-1.87-.2,2.848,2.848,0,0,1-1.2-.578,1.552,1.552,0,0,1-.448-.671,4.512,4.512,0,0,1-.132-1.3V4.573c0-.928-.7-1.062-1.515-1.621V2.905h.51Z" transform="translate(-0.362 -1.264)" fill="#332c2b" fill-rule="evenodd"/>
  <path id="_385491664" d="M2.467,3.023q-.029.061-.058.118a2.888,2.888,0,0,0,.321.31A2.592,2.592,0,0,0,3.1,3.7a4.22,4.22,0,0,0,.464.224L3.45,4.1c-.179-.081-.336-.161-.471-.238a2.767,2.767,0,0,1-.367-.251,2.552,2.552,0,0,1-.311-.3,1.969,1.969,0,0,1-.453.436,4.27,4.27,0,0,1-.664.372l-.119-.163a3.69,3.69,0,0,0,.746-.421,1.447,1.447,0,0,0,.461-.562l.195.055ZM1.183,5.342V5.156H2.208V4.716H1.416V4.527h.792V4.135H1.547V3.949H3.073v.185H2.419v.393h.792v.188H2.419v.441H3.444v.185Zm3.159-.048h-.21V3.256h.846V5.214H4.77V5.08H4.342Zm0-1.23H4.77V3.442H4.342Zm0,.83H4.77V4.253H4.342Zm.815-1.485h.85V2.991h.21v.418H6.5V3.6H6.217V5.1a.327.327,0,0,1-.08.258.437.437,0,0,1-.278.067H5.48l-.058-.195H5.8a.291.291,0,0,0,.169-.033c.028-.022.042-.073.042-.152V3.6h-.85V3.409Zm.667,1.227-.195.083a3.207,3.207,0,0,0-.166-.357,2.493,2.493,0,0,0-.214-.339l.176-.1a1.808,1.808,0,0,1,.147.211q.073.121.139.252T5.824,4.636Zm1.324-.91V3.3H8.164c-.015-.045-.031-.089-.048-.133a1.149,1.149,0,0,0-.061-.129l.2-.061c.027.053.052.106.073.158s.04.107.058.165h.955v.428H9.128V3.483H7.365v.243H7.148ZM7.017,5.294a1.233,1.233,0,0,0,.252-.313A1.351,1.351,0,0,0,7.4,4.644a2.579,2.579,0,0,0,.058-.359l.207.032q-.013.121-.03.232a1.977,1.977,0,0,1-.046.213,1,1,0,0,0,.232.233.906.906,0,0,0,.337.131v-1.1H7.084V3.831H9.39v.191H8.361V4.46H9.2v.2h-.84v.5q.195.023.471.029t.663.007l-.054.191q-.4,0-.682-.008c-.191-.006-.352-.016-.486-.032a1.763,1.763,0,0,1-.337-.069A.908.908,0,0,1,7.7,5.16a.937.937,0,0,1-.187-.176,1.33,1.33,0,0,1-.134.233,1.4,1.4,0,0,1-.195.218l-.166-.141Zm2.946-.469a4.221,4.221,0,0,0,.331-.268c.1-.089.189-.179.27-.269V2.994h.207V5.437h-.207V4.581a4.787,4.787,0,0,1-.492.431l-.109-.188Zm.534-.833-.176.1a6.2,6.2,0,0,0-.342-.626l.169-.1a5.473,5.473,0,0,1,.348.629Zm.533,1.463-.124-.173a1.8,1.8,0,0,0,.658-.425q-.271-.2-.565-.389a2.488,2.488,0,0,0,.145-.3q.069-.164.129-.346h-.4V3.636h.454a5.565,5.565,0,0,0,.137-.6l.2.025c-.015.092-.033.186-.055.284s-.044.2-.07.294h.888v.188h-.252a3.162,3.162,0,0,1-.1.548,1.591,1.591,0,0,1-.206.449c.1.072.191.145.285.219s.181.145.261.216l-.147.176q-.249-.226-.53-.444a1.719,1.719,0,0,1-.3.254,2.324,2.324,0,0,1-.407.213Zm.24-1.058.206.142.219.155a1.538,1.538,0,0,0,.187-.391,2.487,2.487,0,0,0,.1-.478H11.49q-.051.163-.107.31c-.037.1-.075.185-.114.261Zm2.322-.265V3.936h.894a3.356,3.356,0,0,0,.022-.412V3.371h-.734V3.176h1.92v.195h-.971v.144c0,.077,0,.149,0,.219s-.008.137-.015.2h1.214v.195h-.779V5a.18.18,0,0,0,.044.137.237.237,0,0,0,.16.041h.2A.242.242,0,0,0,15.7,5.14a.169.169,0,0,0,.045-.134V4.69l.2.061V5.06a.283.283,0,0,1-.093.246.5.5,0,0,1-.294.067H15.29A.431.431,0,0,1,15,5.3a.349.349,0,0,1-.081-.265v-.9h-.249a1.77,1.77,0,0,1-.166.5,1.671,1.671,0,0,1-.311.417,2.894,2.894,0,0,1-.491.38l-.179-.141a2.853,2.853,0,0,0,.466-.332,1.443,1.443,0,0,0,.3-.369,1.546,1.546,0,0,0,.163-.452h-.865Zm3.709.045-.163.054a2.036,2.036,0,0,0-.069-.26q-.04-.117-.091-.251V5.437h-.189V2.991h.189v.693l.128-.044a1.883,1.883,0,0,1,.109.257q.045.133.086.28Zm-.642.272-.166-.032q.035-.229.058-.434t.025-.415l.17.019q0,.214-.027.433c-.016.146-.036.289-.059.43Zm.98.856V4.747h-.172a2.2,2.2,0,0,1-.035.307.908.908,0,0,1-.073.224.929.929,0,0,1-.122.182l-.14-.086a.791.791,0,0,0,.124-.193.917.917,0,0,0,.066-.251,2.876,2.876,0,0,0,.021-.387V3.687a1.07,1.07,0,0,1-.089.1l-.131-.1a2.666,2.666,0,0,0,.275-.356,1.508,1.508,0,0,0,.166-.368l.156.032a1.505,1.505,0,0,1-.064.188h.5v.141L17.9,3.6h.2v0l.026,0V5.211a.232.232,0,0,1-.046.16.22.22,0,0,1-.168.051h-.08L17.779,5.3h-.141Zm.578-2.056V3.09h.718l-.013.047h.013V3.62a.284.284,0,0,1-.052.2.278.278,0,0,1-.193.051h-.122l-.041-.15h.131a.124.124,0,0,0,.084-.024.11.11,0,0,0,.027-.085V3.247h-.192a1.292,1.292,0,0,1-.089.342,1.038,1.038,0,0,1-.191.29l-.131-.1a.839.839,0,0,0,.168-.24,1.18,1.18,0,0,0,.091-.3h-.207Zm-.84.357h.329l.221-.265h-.38a1.8,1.8,0,0,1-.169.265Zm.092.489h.169V3.77h-.169Zm.326,0h.166V3.77h-.166Zm.409.866v-.15h.332V4.451H18.36a2.036,2.036,0,0,1-.083.275l-.141-.048c.03-.083.054-.16.072-.23a1.948,1.948,0,0,0,.041-.213A2.171,2.171,0,0,0,18.268,4l.15.016c0,.054-.006.1-.011.15s-.011.093-.018.138h.147V3.969h.16V4.3h.236v.15H18.7v.358h.271v.15H18.7v.472h-.16V4.958H18.2Zm-.734-.418v.045h.169V4.259h-.169Zm.326.045h.166V4.259h-.166Zm.086.693c.054,0,.08-.026.08-.077V4.747h-.166v.531ZM19.55,3.355V3.16h2.274v.195h-.348V5.083a.372.372,0,0,1-.08.265.362.362,0,0,1-.268.083h-.444l-.07-.2h.46q.182,0,.182-.176v-1.7ZM20,4.939h-.21V3.758h1.044v.971H20v.211Zm0-.4h.623v-.6H20Zm2.614.725v-.8h.211v.594h.718v-.85h-1.1v-.2h1.1V3.54h-.932v-.2h.932V2.991h.214v.345h.936v.2h-.936v.472h1.1v.2h-1.1v.85h.719V4.473h.214v1h-.214v-.2H22.614Z" transform="translate(30.333 8.68)" fill="#332c2b" fill-rule="evenodd"/>
</svg>
