<svg xmlns="http://www.w3.org/2000/svg" width="129.04" height="14" viewBox="0 0 129.04 14">
  <g id="图层_x0020_1" transform="translate(0 -5)">
    <g id="_385491640" transform="translate(0 5)">
      <path id="_385491784" d="M10.487.73h0a.269.269,0,0,1,.281-.254h2.16a.269.269,0,0,1,.281.254V5.936a.269.269,0,0,1-.281.254h-2.16a.269.269,0,0,1-.281-.254V.73ZM7.592.475h.833A.269.269,0,0,1,8.706.73V5.936a.269.269,0,0,1-.282.254H7.295l.3.449h.833a.269.269,0,0,1,.281.255v6.42l1.063-.172a.789.789,0,0,0,.716-.754V6.895a.269.269,0,0,1,.281-.255h2.161a.269.269,0,0,1,.281.255v5.493a.789.789,0,0,0,.716.754l1.065.172V6.895a.269.269,0,0,1,.28-.255h.735V6.191h-.735a.268.268,0,0,1-.28-.254V.73a.268.268,0,0,1,.28-.254h.735V.027H7.295l.3.449Z" transform="translate(113.034 0.416)" fill="#fff" fill-rule="evenodd"/>
      <path id="_385491208" d="M11.683,6.667h0a5.177,5.177,0,0,1-.848,2.8,5.183,5.183,0,0,1-.847-2.8V3.324a.268.268,0,0,1,.28-.255H11.4a.269.269,0,0,1,.281.255Zm.411,3.953a5.707,5.707,0,0,0,1.568-3.953V3.324a.268.268,0,0,1,.28-.255h.679V2.62h-.679a.269.269,0,0,1-.28-.255V.057L12.4.229a.791.791,0,0,0-.716.755V2.365a.269.269,0,0,1-.281.255H10.268a.269.269,0,0,1-.28-.255V.984A.791.791,0,0,0,9.271.229L8.008.057V2.365a.269.269,0,0,1-.28.255H6.852l.3.449h.58a.268.268,0,0,1,.28.255V6.667a5.707,5.707,0,0,0,1.568,3.953.237.237,0,0,1-.02.344A9.614,9.614,0,0,1,6.84,12.68l.049.166a13.85,13.85,0,0,0,3.805-1.157.309.309,0,0,1,.282,0,13.838,13.838,0,0,0,3.8,1.157l.049-.166a9.625,9.625,0,0,1-2.716-1.717.237.237,0,0,1-.02-.344h0Z" transform="translate(105.994 0.884)" fill="#fff" fill-rule="evenodd"/>
      <path id="_385491856" d="M18.528,6.77l-.681-3.506a.264.264,0,0,1,.277-.3h2.823V2.516H18.478a.864.864,0,0,0,.15-.814.993.993,0,0,0-.389-.488A5.638,5.638,0,0,0,16.162.657a4.006,4.006,0,0,1,.5,1.585.864.864,0,0,0,.142.274H15.034a.269.269,0,0,1-.281-.255V.927a.791.791,0,0,0-.716-.755L12.577,0V2.261a.269.269,0,0,1-.281.255H6.085l.3.449H9.4a.264.264,0,0,1,.276.3L9,6.77C8.194,10.911,6.486,12.5,5.66,13.041l.031.158c1.226-.3,4.359-1.5,5.256-6.116l.759-3.907a.273.273,0,0,1,.276-.211H12.3a.269.269,0,0,1,.281.254V14l1.46-.172a.79.79,0,0,0,.716-.755V3.219a.269.269,0,0,1,.281-.254h.511a.274.274,0,0,1,.276.211l.759,3.907c.9,4.618,4.03,5.82,5.256,6.116l.031-.158c-.826-.543-2.533-2.13-3.339-6.271h0Z" transform="translate(87.71 0)" fill="#fff" fill-rule="evenodd"/>
      <path id="_385491520" d="M9.752.167l-1.47.882A7.8,7.8,0,0,0,6.653.412a8.071,8.071,0,0,0-2.1-.274,5.391,5.391,0,0,0-3.281.935A2.827,2.827,0,0,0,0,3.441,2.5,2.5,0,0,0,.423,4.883,3.209,3.209,0,0,0,1.689,5.919,12.25,12.25,0,0,0,5.4,6.762c.292.03.518.055.675.076a7.257,7.257,0,0,1,2.475.613,1.235,1.235,0,0,1,.624,1.117A1.525,1.525,0,0,1,8.31,9.922a4.63,4.63,0,0,1-2.354.508,6.22,6.22,0,0,1-3.314-.818A6.242,6.242,0,0,1,.326,7.032H.194V10.8H.46L1.915,9.88a6.949,6.949,0,0,0,1.749.692,9.015,9.015,0,0,0,2.252.274A5.583,5.583,0,0,0,9.3,9.934a2.934,2.934,0,0,0,1.233-2.485,2.669,2.669,0,0,0-.956-2.139,5.541,5.541,0,0,0-2.817-1.08c-.336-.048-.8-.113-1.408-.19q-3.794-.493-3.8-1.756a1.414,1.414,0,0,1,.8-1.278A4.607,4.607,0,0,1,4.6.554a6.057,6.057,0,0,1,2.937.683A6.522,6.522,0,0,1,9.784,3.376h.134V.138H9.784l-.032.03Zm17.656,10.29v.082h-6.9v-.082c1.608-1.024,1.818-1.031,1.818-2.293V5.328H17.445V8.164c0,1.229.5,1.369,1.817,2.293v.082h-6.9v-.082c1.177-.749,2.343-.992,2.343-2.293V2.983c0-1.579-.921-1.6-2.343-2.5V.4h6.9V.482c-1.482,1.045-1.817.753-1.817,2.474V4.8h4.883V2.983c0-1.979.153-1.246-1.818-2.5V.4h6.9V.482c-1.2.843-2.344,1.128-2.344,2.5V8.192c0,1.1,1.505,1.676,2.344,2.266h0ZM62.3,6.927h4.554L64.971,2.784h-.354ZM60.836,8.433,65.5.248h1.1l3.877,8.445a4.867,4.867,0,0,0,1.607,1.724v.08H66.144v-.08c1.624-1.23,1.783-1.126,1.152-2.523l-.2-.442H62.04l-.241.417c-.394.683.563,1.6,1.449,2.547v.08h-4.2v-.08a8.977,8.977,0,0,0,1.791-1.983h0ZM58.886.358h.656V.416L57.826,1.529A2.379,2.379,0,0,0,56.837,2.6L54.752,5.792V8c0,1.492.965,1.559,2.309,2.414V10.5h-7.4v-.083c1.381-.879,2.332-.926,2.332-2.459V6.463l-1.37-2.455c-.939-1.685-.879-1.508-2.47-2.6L46.738.434V.358h6.613V.43c-1.391.956-1.424.567-.644,1.969l1.724,3.1,2.01-3.032c.581-.875.6-.668-.236-1.213L54.888.4V.358h4ZM87.67.429V.358H82.138V.429c1.427,1,2.715,1.758,2.715,2.9v5.26L78.15.358H72.5V.434l1.977,1.358c1,.931.87.814.87,2.372V7.7c0,1.044-1.278,1.829-2.455,2.725V10.5h5.112v-.073c-1.1-.93-2.242-1.671-2.242-2.736V1.573l6.28,7.667,1.03,1.256h2.171V3.325c0-1.252,1.074-1.855,2.422-2.9h0ZM29.288.4h6.634V.494c-1.47.936-2.343.911-2.343,2.544V7.382A2.869,2.869,0,0,0,34.4,9.649a3.886,3.886,0,0,0,2.594.715,4.117,4.117,0,0,0,2.846-.781,3.653,3.653,0,0,0,.836-2.749V3.018c0-1.168-1.756-1.825-2.8-2.544V.4h5.936V.473c-.98.673-2.694,1.37-2.694,2.544v4.01a3.556,3.556,0,0,1-1.056,2.931,5.786,5.786,0,0,1-3.565.843,11.88,11.88,0,0,1-2.891-.314,4.4,4.4,0,0,1-1.862-.894,2.4,2.4,0,0,1-.693-1.037,6.974,6.974,0,0,1-.2-2.011V2.979c0-1.434-1.084-1.641-2.342-2.505V.4h.789Z" transform="translate(0 2.136)" fill="#fff" fill-rule="evenodd"/>
    </g>
  </g>
</svg>
